<?xml version="1.0" standalone="no"?>
<!DOCTYPE svg PUBLIC "-//W3C//DTD SVG 20010904//EN"
 "http://www.w3.org/TR/2001/REC-SVG-20010904/DTD/svg10.dtd">
<svg version="1.0" xmlns="http://www.w3.org/2000/svg"
 width="981.000000pt" height="1920.000000pt" viewBox="0 0 981.000000 1920.000000"
 preserveAspectRatio="xMidYMid meet">
<metadata>
Created by potrace 1.15, written by Peter Selinger 2001-2017
</metadata>
<g transform="translate(0.000000,1920.000000) scale(0.100000,-0.100000)"
fill="#000000" stroke="none">
<path d="M100 19194 c48 -6 120 -25 120 -33 0 -3 -28 -21 -61 -39 -34 -18 -83
-47 -110 -65 l-49 -32 0 -67 0 -68 24 21 c60 52 199 137 243 148 26 7 65 17
86 23 24 7 41 8 45 2 11 -14 73 -59 108 -77 17 -9 87 -72 155 -139 141 -140
174 -195 209 -343 69 -290 66 -394 -21 -650 -127 -372 -256 -531 -519 -633
-41 -16 -84 -33 -95 -37 -11 -5 -24 -9 -30 -9 -5 -1 -35 -7 -65 -14 -30 -6
-64 -13 -75 -15 -49 -7 -65 -29 -65 -86 0 -46 2 -53 17 -48 10 2 70 19 133 36
63 18 125 39 137 47 13 8 23 12 23 8 0 -4 7 -1 15 6 8 7 15 9 15 5 0 -4 6 -3
12 2 7 6 36 16 63 23 28 8 52 16 55 19 10 12 50 31 64 31 12 0 41 -31 131
-142 13 -16 12 -18 -13 -24 -23 -6 -61 -24 -210 -103 -15 -8 -29 -17 -32 -21
-3 -3 -22 -14 -42 -23 -20 -10 -40 -22 -43 -27 -4 -6 -27 -21 -53 -34 -65 -34
-179 -128 -211 -173 -20 -30 -26 -49 -25 -89 2 -55 30 -149 67 -219 16 -30 23
-45 52 -104 15 -30 32 -60 38 -66 7 -7 26 -30 42 -51 75 -97 127 -154 148
-165 12 -6 32 -21 44 -32 21 -19 22 -21 5 -36 -26 -24 -72 -88 -72 -100 0 -10
-14 -15 -32 -12 -4 0 -5 -5 -3 -12 5 -14 -74 -103 -87 -99 -5 1 -7 -2 -3 -7 6
-11 -87 -113 -101 -110 -5 1 -20 -3 -34 -9 -14 -6 -21 -11 -17 -11 11 -1 -19
-31 -31 -31 -6 0 -12 -7 -16 -15 -3 -8 -11 -14 -18 -13 -10 2 -14 -21 -16 -90
-3 -108 -2 -108 80 -28 26 25 62 53 79 62 49 25 120 90 174 159 17 21 45 52
64 69 18 17 52 59 74 94 23 34 46 62 52 62 11 0 55 -53 55 -65 0 -21 -182
-225 -202 -225 -3 0 -33 -27 -66 -60 -34 -33 -63 -60 -66 -60 -3 0 -37 -31
-75 -70 -38 -38 -74 -70 -81 -70 -6 0 -8 -4 -5 -10 3 -5 0 -10 -8 -10 -8 0
-17 -7 -21 -15 -3 -8 -13 -15 -21 -15 -9 0 -14 -4 -11 -9 3 -5 -1 -11 -9 -15
-12 -4 -15 -25 -15 -101 0 -94 0 -95 24 -95 14 0 60 14 103 32 43 17 103 38
133 46 116 30 347 68 470 77 47 4 89 9 94 12 5 3 38 9 73 13 62 6 64 5 58 -14
-3 -12 -7 -25 -9 -31 -9 -29 -22 -58 -64 -143 -25 -52 -47 -101 -48 -109 -1
-8 -9 -22 -17 -31 -8 -10 -31 -48 -52 -87 -21 -38 -43 -79 -49 -90 -9 -17 -60
-89 -83 -120 -90 -116 -119 -151 -130 -158 -7 -5 -49 -43 -92 -85 -92 -90
-118 -112 -131 -112 -6 0 -10 -4 -10 -10 0 -5 -7 -7 -15 -4 -9 4 -15 0 -15
-10 0 -8 -11 -23 -25 -32 -26 -17 -32 -50 -16 -82 23 -44 29 -69 27 -99 -1
-18 -3 -55 -4 -81 -2 -42 -6 -50 -27 -60 -14 -7 -40 -12 -58 -12 -17 0 -55 -6
-84 -12 l-53 -13 0 -58 c0 -59 0 -59 28 -53 82 17 164 28 169 23 3 -4 7 -52 8
-109 2 -57 13 -154 25 -215 12 -62 19 -117 16 -122 -3 -5 6 -58 20 -118 49
-206 64 -366 41 -429 -21 -57 -128 -181 -146 -170 -5 3 -11 -2 -13 -12 -5 -16
-57 -47 -121 -71 -26 -10 -27 -13 -27 -80 l0 -70 42 24 c24 14 58 30 77 36 80
27 253 187 286 265 49 114 56 200 30 337 -21 109 -19 115 23 80 31 -26 107
-79 187 -128 39 -24 91 -60 118 -80 66 -51 141 -75 229 -75 77 0 72 -2 159 75
15 12 39 31 55 41 85 55 341 243 384 282 14 13 50 42 80 65 68 51 127 109 166
162 16 22 34 45 40 50 58 53 179 253 209 345 10 30 21 60 25 65 4 6 10 21 13
35 3 14 15 59 26 100 23 84 26 163 10 255 -16 96 -62 141 -177 176 -42 12
-123 17 -151 8 -24 -7 -242 -120 -251 -130 -31 -34 -120 -53 -135 -29 -3 6
-15 10 -26 10 -10 0 -19 5 -19 10 0 6 -5 10 -11 10 -6 0 -27 14 -47 31 -19 17
-53 39 -76 49 -23 10 -54 30 -71 46 -16 16 -52 42 -80 58 -27 16 -54 36 -59
45 -17 28 -150 151 -163 151 -15 0 -18 41 -4 55 14 16 97 185 122 250 13 33
31 72 41 87 10 14 18 32 18 40 0 7 10 41 23 75 16 46 31 68 57 86 23 16 34 30
32 43 -9 53 -4 126 10 142 9 9 19 35 22 57 4 22 16 69 26 105 42 149 53 232
52 378 -1 58 3 102 9 102 18 0 9 41 -15 65 -13 13 -33 56 -45 95 -35 115 -130
314 -222 465 -47 77 -101 169 -120 205 -29 57 -149 226 -169 240 -4 3 -28 29
-53 59 -52 61 -52 61 15 133 25 25 65 77 90 115 50 75 148 266 148 289 0 8 4
22 9 32 31 58 82 249 87 324 3 46 8 86 11 91 2 4 -1 49 -7 100 -26 217 -81
401 -142 482 -74 97 -280 295 -335 321 -22 10 -44 28 -49 38 -5 11 -27 29 -49
40 -36 19 -59 21 -215 22 -96 1 -159 0 -140 -2z m636 -2240 c18 -5 44 -40 44
-59 0 -2 -27 -22 -59 -45 -33 -22 -66 -49 -74 -60 -8 -11 -17 -17 -21 -12 -4
4 -6 3 -5 -3 2 -5 -3 -34 -10 -63 -19 -75 2 -128 104 -268 17 -23 35 -50 42
-60 23 -35 86 -128 115 -169 16 -22 44 -63 63 -91 45 -69 87 -84 115 -43 8 12
32 39 52 62 l37 41 6 -26 c11 -42 2 -81 -18 -84 -10 -1 -35 -14 -56 -28 -20
-14 -40 -26 -44 -26 -9 0 -189 -119 -232 -154 -32 -25 -85 -42 -85 -27 0 8
-23 18 -60 26 -8 2 -26 18 -40 36 -29 38 -102 113 -121 125 -20 13 -212 225
-231 255 -35 56 -108 249 -108 287 0 32 8 47 43 85 38 41 212 166 262 188 11
5 45 23 75 41 57 33 158 77 175 78 6 0 20 -3 31 -6z m106 -165 c9 -8 19 -25
22 -37 4 -12 12 -22 17 -22 5 0 9 -5 9 -11 0 -6 11 -25 25 -43 14 -18 25 -36
25 -39 0 -4 14 -29 31 -57 37 -61 129 -268 129 -292 0 -10 -6 -18 -14 -18 -8
0 -26 -14 -41 -31 l-26 -32 -45 49 c-24 27 -90 116 -145 197 -81 119 -102 158
-110 202 -10 55 -1 95 21 95 6 0 10 7 10 15 0 8 11 17 25 21 14 3 25 10 25 14
0 13 25 6 42 -11z m323 -861 c-3 -18 -10 -69 -15 -112 -6 -44 -15 -85 -21 -92
-5 -7 -38 -15 -72 -19 -55 -6 -81 -11 -162 -30 -11 -3 -42 -8 -70 -11 -27 -4
-54 -9 -60 -13 -5 -3 -26 -6 -45 -6 -31 0 -35 3 -38 28 -2 15 2 27 8 27 25 0
172 72 205 100 11 10 43 30 70 44 28 15 70 40 95 56 37 25 97 58 107 60 2 0 0
-15 -2 -32z m-72 -367 c5 -5 1 -28 -12 -56 -12 -26 -21 -55 -21 -65 0 -37 -23
-82 -48 -91 -14 -5 -28 -6 -31 -2 -3 4 -17 9 -31 11 -53 6 -68 13 -74 34 -8
32 -7 131 2 144 13 19 136 44 186 37 11 -1 24 -7 29 -12z m-342 -79 c4 -21 3
-32 -5 -32 -8 0 -8 -2 0 -8 14 -9 26 -133 15 -151 -5 -8 -33 -15 -72 -18 -35
-2 -90 -8 -122 -14 -31 -5 -62 -7 -67 -4 -6 3 -10 2 -10 -3 0 -9 -26 -15 -120
-25 -19 -3 -35 -5 -35 -7 0 -1 -13 -4 -29 -6 -16 -3 -38 -9 -48 -15 -14 -7
-16 -6 -12 6 4 8 10 15 15 15 5 0 9 6 9 14 0 17 3 20 100 106 40 36 79 71 86
78 7 6 15 12 18 12 4 0 25 19 49 43 l42 42 90 0 89 0 7 -33z m161 -999 c46
-43 107 -98 136 -121 56 -47 59 -53 39 -74 -12 -12 -55 -72 -82 -117 -5 -9
-20 -26 -32 -39 -13 -12 -23 -29 -23 -37 0 -8 -5 -15 -12 -15 -6 0 -9 -3 -5
-6 3 -4 1 -12 -6 -19 -7 -7 -19 -22 -27 -35 -8 -12 -36 -44 -62 -71 -26 -27
-44 -49 -40 -49 4 0 -12 -18 -35 -40 -24 -21 -43 -43 -43 -47 0 -5 -11 -17
-25 -27 -37 -28 -67 -57 -93 -90 -12 -16 -22 -26 -22 -22 0 3 -15 -8 -32 -25
-18 -17 -58 -52 -88 -78 -30 -25 -60 -52 -66 -60 -47 -61 -67 109 -45 381 6
71 8 140 5 155 -5 23 0 31 25 46 17 10 31 22 31 28 0 5 5 9 10 9 6 0 31 21 58
48 26 26 63 61 82 77 19 17 53 53 75 80 22 28 49 60 60 72 11 12 41 51 65 87
25 36 51 66 57 66 7 0 50 -35 95 -77z m1091 -209 c39 -29 51 -74 43 -173 -4
-47 -11 -102 -17 -121 -33 -105 -86 -241 -111 -280 -15 -25 -33 -56 -38 -70
-6 -14 -19 -32 -28 -41 -9 -8 -26 -28 -37 -43 -63 -86 -147 -175 -235 -246
-92 -75 -115 -95 -123 -107 -4 -7 -14 -13 -20 -13 -7 0 -29 -16 -49 -34 -20
-19 -51 -42 -67 -51 -17 -8 -31 -20 -31 -25 0 -6 -6 -10 -14 -10 -8 0 -16 -4
-18 -8 -1 -4 -28 -23 -58 -41 -30 -19 -81 -57 -114 -84 -55 -48 -63 -51 -120
-55 -59 -3 -63 -2 -116 38 -30 23 -68 49 -84 57 -28 15 -106 68 -189 130 -57
42 -173 155 -186 180 -28 55 -18 71 113 184 21 19 56 50 76 70 21 20 53 48 72
64 52 43 184 172 200 194 8 11 40 49 72 83 31 35 105 130 164 213 59 82 114
151 123 153 8 1 50 -20 93 -48 161 -107 236 -130 250 -76 3 11 25 32 48 45
111 61 235 124 258 132 39 13 114 4 143 -17z"/>
<path d="M338 16612 c-34 -3 -38 -6 -38 -31 0 -15 -5 -42 -11 -60 -22 -63 10
-106 88 -117 37 -5 41 -3 53 25 6 17 18 36 26 42 18 14 19 99 2 121 -14 17
-63 25 -120 20z"/>
<path d="M431 16375 c-21 -20 -23 -29 -16 -72 14 -96 87 -133 147 -73 27 28
30 36 25 73 -11 83 -102 126 -156 72z"/>
<path d="M7849 19180 c-13 -8 -26 -18 -27 -23 -2 -4 -8 -5 -13 -1 -5 3 -9 -2
-9 -11 0 -9 -4 -13 -10 -10 -10 6 -19 0 -63 -40 -12 -11 -41 -33 -65 -48 -48
-31 -72 -71 -54 -89 22 -22 428 -3 577 28 39 7 74 14 78 14 5 0 5 5 2 10 -4 6
-14 9 -23 6 -10 -3 -53 -8 -97 -11 -44 -3 -98 -8 -120 -10 -82 -10 -355 -14
-355 -6 0 4 19 23 41 42 23 19 49 41 58 49 10 8 33 24 52 34 43 25 99 69 99
78 0 13 -46 5 -71 -12z"/>
<path d="M9104 19113 c8 -108 22 -242 41 -388 7 -60 21 -173 30 -250 9 -77 20
-171 26 -210 5 -38 20 -169 34 -290 13 -121 31 -276 40 -345 9 -69 27 -217 40
-330 14 -113 30 -239 35 -280 5 -41 16 -138 24 -215 8 -77 24 -223 36 -325 11
-102 23 -210 26 -240 3 -30 11 -113 19 -185 8 -71 17 -161 20 -200 3 -38 15
-151 25 -250 30 -276 39 -366 55 -550 19 -212 32 -350 45 -485 9 -96 53 -606
65 -760 3 -36 7 -83 10 -105 3 -22 10 -96 15 -165 13 -170 18 -223 35 -380 8
-74 17 -178 20 -230 4 -52 8 -108 10 -125 1 -16 12 -154 24 -305 12 -151 24
-276 27 -279 2 -2 4 1567 4 3487 l0 3492 -356 0 -356 0 6 -87z"/>
<path d="M3483 18008 c-5 -7 -16 -32 -25 -55 -13 -34 -13 -41 -2 -36 8 3 14
-1 14 -8 1 -17 40 81 40 99 0 6 -4 12 -9 12 -5 0 -13 -6 -18 -12z"/>
<path d="M3751 17952 c-11 -14 -21 -32 -21 -39 0 -7 -4 -13 -8 -13 -5 0 -15
-12 -22 -27 -27 -54 -35 -59 -40 -28 -6 36 -28 44 -34 13 -16 -78 -17 -100 -4
-92 10 6 11 5 1 -7 -13 -17 -44 -140 -37 -151 3 -4 -2 -34 -11 -67 -20 -78
-19 -92 3 -84 34 12 52 36 51 67 0 17 4 47 9 66 39 137 56 185 68 198 8 7 19
34 25 59 7 26 15 40 19 33 5 -8 9 -7 13 4 8 20 27 21 27 1 0 -8 4 -15 8 -15 4
0 13 -20 20 -45 7 -25 19 -48 27 -51 13 -5 13 -10 0 -41 -18 -42 -19 -79 -3
-89 8 -5 9 2 5 24 -3 17 -3 32 2 34 4 2 11 22 15 46 4 27 3 41 -3 38 -5 -4
-12 -2 -16 4 -3 5 1 10 9 10 36 0 -19 156 -60 171 -17 6 -26 1 -43 -19z"/>
<path d="M4130 17929 c-45 -18 -99 -61 -118 -93 -25 -42 -51 -183 -32 -171 6
4 10 -5 10 -19 0 -14 5 -26 10 -26 6 0 10 -7 10 -16 0 -8 5 -12 10 -9 6 3 10
0 10 -8 0 -8 12 -17 28 -20 26 -5 52 6 90 39 9 8 20 13 24 12 12 -4 80 101 73
112 -3 6 1 10 10 10 9 0 14 3 12 8 -2 4 6 17 19 30 13 12 24 21 24 18 0 -2 3
-13 6 -23 5 -15 4 -15 -5 -3 -9 13 -11 12 -11 -4 0 -11 5 -16 13 -13 16 6 40
-53 40 -98 0 -17 -12 -53 -28 -79 -45 -77 -49 -143 -11 -182 6 -6 25 -26 41
-45 17 -19 48 -49 68 -67 37 -32 38 -32 62 -15 27 20 33 58 11 66 -9 4 -20 32
-27 66 -6 33 -16 58 -20 55 -6 -3 -7 13 -3 37 5 31 4 40 -4 35 -8 -5 -13 4
-14 26 -3 59 1 83 18 95 8 6 14 19 12 27 -3 14 -6 14 -30 2 -15 -8 -29 -11
-33 -8 -3 4 -10 0 -15 -8 -6 -9 -10 -10 -10 -3 0 6 5 15 11 19 7 4 7 9 2 13
-5 3 -23 49 -40 101 -22 68 -36 96 -49 100 -11 3 -30 13 -44 22 -33 22 -89 30
-120 17z m107 -89 c7 -14 9 -29 5 -35 -5 -5 -14 -28 -21 -50 -25 -73 -74 -129
-126 -143 -34 -10 -50 5 -59 54 -3 16 -10 30 -15 32 -5 2 -6 15 -1 33 5 16 6
29 2 29 -4 0 -2 4 3 8 6 4 20 28 32 53 11 25 27 46 35 47 46 3 58 8 54 18 -9
23 79 -22 91 -46z m-210 -52 c-3 -8 -6 -5 -6 6 -1 11 2 17 5 13 3 -3 4 -12 1
-19z m323 -43 c0 -5 -5 -3 -10 5 -5 8 -10 20 -10 25 0 6 5 3 10 -5 5 -8 10
-19 10 -25z m68 -217 c8 -21 8 -34 2 -38 -7 -4 -5 -23 4 -53 7 -25 11 -48 9
-51 -3 -3 -19 8 -36 24 -37 34 -51 104 -27 133 21 25 34 21 48 -15z"/>
<path d="M3397 17629 c2 -170 5 -214 18 -231 10 -15 15 -18 15 -8 0 12 2 13 9
1 5 -7 11 -9 14 -5 8 14 7 135 -1 130 -4 -2 -6 53 -5 122 2 130 -6 175 -36
192 -15 8 -16 -10 -14 -201z"/>
<path d="M2048 17774 c-16 -8 -28 -19 -28 -24 0 -6 -3 -9 -7 -9 -13 2 -73 -25
-73 -33 0 -9 31 -18 50 -14 51 10 103 56 94 81 -4 8 -7 15 -8 15 0 -1 -13 -8
-28 -16z"/>
<path d="M3144 17772 c-22 -14 -44 -73 -49 -126 -3 -30 -9 -73 -14 -95 -11
-49 -4 -307 10 -378 18 -90 60 -107 62 -27 2 48 -12 184 -19 196 -3 4 1 8 8 9
44 3 60 8 78 24 11 10 20 24 20 32 0 7 4 13 9 13 14 0 33 56 30 92 -2 18 1 39
5 46 4 8 5 33 1 57 -15 102 -93 189 -141 157z m52 -67 c23 -23 34 -72 35 -150
1 -91 -23 -155 -56 -155 -13 0 -26 4 -29 8 -13 21 -5 244 10 295 7 21 21 22
40 2z"/>
<path d="M2795 17680 c-3 -11 -11 -20 -16 -20 -5 0 -9 -8 -9 -18 0 -10 -5 -23
-10 -28 -7 -7 -5 -17 4 -30 15 -18 15 -18 9 4 -3 13 -1 22 6 22 6 0 11 7 11
15 0 18 17 19 34 2 14 -13 60 -163 70 -228 4 -19 13 -44 22 -55 14 -18 15 -16
10 26 -3 25 -8 70 -11 100 -11 106 -47 200 -84 220 -26 14 -29 13 -36 -10z"/>
<path d="M4477 17693 c-4 -3 -7 -13 -7 -22 0 -14 2 -14 10 -1 6 10 10 11 10 3
0 -7 5 -13 11 -13 6 0 8 7 5 16 -5 14 -4 15 9 4 12 -10 15 -10 15 4 0 16 -40
23 -53 9z"/>
<path d="M3861 17664 c0 -11 3 -14 6 -6 3 7 2 16 -1 19 -3 4 -6 -2 -5 -13z"/>
<path d="M2589 17633 c-10 -2 -19 -13 -22 -25 -4 -14 -11 -19 -21 -15 -9 4
-16 5 -17 4 0 -1 -2 -68 -5 -148 -5 -119 -3 -147 9 -157 29 -24 42 -5 44 66 0
37 2 109 3 160 2 87 11 120 24 87 3 -8 12 -15 20 -15 8 0 27 -20 42 -45 28
-48 28 -59 8 -216 -5 -38 -3 -47 11 -53 9 -3 20 -4 25 -1 9 5 19 68 26 152 2
30 9 73 14 94 11 39 7 59 -10 59 -5 0 -10 -10 -12 -22 -3 -21 -6 -18 -31 19
-36 57 -60 69 -108 56z"/>
<path d="M3864 17614 c3 -9 6 -27 6 -40 0 -14 4 -23 8 -20 11 7 2 76 -10 76
-6 0 -7 -7 -4 -16z"/>
<path d="M2378 17528 c-2 -51 -1 -98 3 -103 5 -6 11 -31 14 -55 10 -75 15 -91
25 -85 5 3 7 -1 4 -9 -7 -18 22 -51 31 -36 3 5 4 14 1 19 -7 11 -25 174 -30
268 -4 77 -10 93 -31 93 -10 0 -14 -24 -17 -92z"/>
<path d="M2165 17574 c-4 -16 -8 -34 -10 -40 -4 -12 21 -241 28 -264 3 -8 8
-28 12 -43 4 -20 10 -27 21 -23 9 3 12 1 9 -4 -3 -6 1 -10 9 -10 8 0 18 5 22
11 4 8 9 7 16 -2 7 -10 8 -8 3 8 -5 18 -3 20 16 16 20 -6 21 -3 15 22 -6 22
-4 26 8 22 9 -4 16 -5 16 -4 0 1 4 17 9 35 6 20 6 30 0 27 -5 -4 -9 -16 -10
-28 -1 -21 -1 -21 -8 2 -6 22 -7 22 -23 -12 -9 -20 -26 -40 -36 -46 -22 -11
-19 -18 -42 99 -6 30 -12 95 -15 144 -2 62 -8 93 -19 104 -13 13 -16 12 -21
-14z"/>
<path d="M2043 17528 c-19 -23 -25 -95 -12 -135 13 -41 18 -361 5 -381 -8 -13
-49 0 -72 23 -19 18 -37 20 -31 3 2 -7 9 -12 16 -11 6 2 13 -8 17 -22 3 -14
12 -25 20 -25 8 0 14 -4 14 -9 0 -18 29 -19 48 -3 31 28 55 81 30 66 -9 -5 -8
-2 1 9 14 17 13 57 -3 403 -4 71 -17 103 -33 82z"/>
<path d="M4491 17384 c0 -11 3 -14 6 -6 3 7 2 16 -1 19 -3 4 -6 -2 -5 -13z"/>
<path d="M4510 17363 c0 -12 5 -25 10 -28 13 -8 13 15 0 35 -8 12 -10 11 -10
-7z"/>
<path d="M4269 17169 c-6 -13 -10 -78 -10 -172 l1 -150 -23 19 c-51 44 -79 52
-120 33 -56 -25 -96 -181 -63 -244 9 -16 16 -26 16 -21 0 4 12 -5 28 -20 15
-16 38 -31 51 -32 38 -6 98 18 112 44 17 33 22 30 39 -18 12 -33 20 -42 42
-44 30 -3 46 11 23 19 -8 4 -14 18 -13 34 0 15 -6 87 -15 158 -9 72 -17 185
-17 253 0 116 -9 162 -30 162 -5 0 -14 -9 -21 -21z m-71 -348 c12 -10 22 -22
22 -25 0 -4 7 -15 16 -24 19 -19 14 -80 -10 -117 -20 -31 -68 -56 -85 -45 -21
12 -51 111 -40 132 5 9 9 28 9 43 0 52 48 72 88 36z"/>
<path d="M3125 17046 c-13 -20 -16 -54 -17 -183 0 -169 6 -236 26 -268 7 -11
16 -37 20 -57 4 -21 10 -37 14 -37 20 3 32 -3 32 -16 0 -8 7 -15 17 -15 14 0
15 2 1 18 -9 9 -19 27 -22 40 -4 12 -11 22 -15 22 -4 0 -8 15 -9 33 -1 17 -7
57 -12 88 -10 55 -6 257 6 334 4 30 2 44 -9 54 -13 10 -18 8 -32 -13z"/>
<path d="M3790 16952 c0 -4 -18 -26 -40 -50 -22 -23 -40 -49 -40 -57 0 -8 -4
-15 -10 -15 -5 0 -10 -7 -10 -15 0 -27 -17 -16 -26 18 -6 17 -16 32 -24 32
-12 0 -15 -26 -16 -148 -2 -143 -1 -149 20 -156 27 -11 41 8 52 74 8 47 9 58
13 113 0 13 5 20 11 17 5 -3 7 0 4 9 -7 18 31 106 46 106 6 0 8 5 5 10 -3 6 1
10 9 10 9 0 16 4 16 9 0 5 9 7 20 4 11 -3 18 -9 15 -13 -3 -5 4 -11 14 -15 11
-3 23 -16 26 -28 4 -12 12 -35 19 -52 8 -16 20 -45 27 -62 14 -33 29 -44 29
-20 -2 70 -61 210 -97 226 -28 13 -63 15 -63 3z"/>
<path d="M3450 16860 c-8 -5 -17 -7 -21 -5 -13 9 -99 -91 -111 -128 -3 -12 -6
-61 -7 -108 -1 -70 2 -89 17 -101 24 -21 50 -29 57 -18 4 6 13 10 21 10 13 0
23 7 79 57 14 12 25 18 25 13 0 -5 11 -21 25 -36 l25 -27 -7 34 c-3 19 -9 35
-12 36 -3 2 -5 41 -4 88 2 127 -39 215 -87 185z m30 -119 c-1 -71 -13 -125
-34 -146 -8 -9 -19 -22 -24 -30 -4 -8 -19 -16 -32 -17 l-25 -3 0 99 c0 90 2
100 22 113 12 8 32 23 43 33 35 30 50 15 50 -49z"/>
<path d="M2254 16743 c22 -162 22 -158 -16 -181 -20 -12 -42 -22 -51 -22 -8 0
-17 -4 -19 -8 -1 -4 -20 -18 -40 -31 -36 -21 -49 -41 -29 -41 5 0 16 -3 25 -6
11 -4 16 -1 16 11 0 9 5 13 10 10 6 -3 10 -1 10 5 0 7 8 9 19 5 10 -3 23 1 30
8 12 15 57 15 72 0 4 -4 12 -30 17 -58 5 -27 10 -40 11 -27 0 12 5 22 10 22 4
0 7 20 5 44 -2 24 0 55 5 68 6 12 10 17 10 9 1 -10 4 -11 15 -2 8 7 26 14 41
17 26 5 55 25 55 39 0 4 -7 13 -15 22 -14 13 -20 13 -55 -1 -22 -9 -42 -16
-45 -16 -2 0 -9 19 -16 43 -10 36 -13 39 -20 22 -8 -16 -8 -15 -3 5 14 59 -1
110 -34 110 -12 0 -13 -9 -8 -47z"/>
<path d="M4546 16774 c-27 -27 -13 -69 20 -62 24 4 30 43 10 63 -13 13 -16 13
-30 -1z"/>
<path d="M3944 16689 c-3 -6 -2 -15 3 -20 5 -5 9 -1 9 11 0 23 -2 24 -12 9z"/>
<path d="M2595 16633 c-66 -17 -101 -87 -92 -183 9 -99 55 -142 123 -114 31
13 74 77 74 111 0 9 8 22 18 30 9 8 12 12 6 9 -6 -3 -10 15 -10 49 1 83 -40
118 -119 98z m47 -50 c38 -43 34 -130 -8 -181 -22 -26 -29 -29 -48 -21 -24 11
-46 74 -46 133 0 66 66 110 102 69z"/>
<path d="M1784 13043 c-19 -20 -34 -44 -34 -53 0 -9 -3 -20 -7 -24 -4 -4 -13
-26 -19 -49 -7 -23 -21 -67 -32 -97 -34 -94 -72 -215 -72 -231 0 -22 -126
-395 -149 -444 -15 -29 -61 -183 -61 -202 0 -22 65 -83 89 -83 23 0 44 34 56
90 4 19 12 41 16 50 13 22 148 426 164 490 23 93 64 228 116 381 27 81 49 154
49 162 0 24 -28 47 -57 47 -16 0 -37 -13 -59 -37z"/>
<path d="M1347 12630 c-15 -17 -32 -50 -38 -73 -6 -23 -27 -89 -47 -147 -34
-104 -34 -106 -18 -149 9 -24 13 -47 10 -52 -3 -5 2 -9 10 -9 9 0 16 4 16 8 0
4 13 12 28 18 30 11 25 1 107 264 14 46 31 90 37 97 9 11 6 20 -9 41 -29 39
-64 40 -96 2z"/>
<path d="M1211 12334 c0 -11 3 -14 6 -6 3 7 2 16 -1 19 -3 4 -6 -2 -5 -13z"/>
<path d="M280 12306 c0 -8 -7 -19 -16 -24 -25 -14 -45 -89 -61 -232 -19 -178
-20 -170 13 -208 30 -34 72 -43 92 -19 6 7 20 91 31 187 11 96 24 189 29 205
12 42 5 60 -26 75 -15 7 -35 16 -44 21 -13 7 -18 5 -18 -5z"/>
<path d="M4290 12303 c-114 -13 -204 -29 -255 -43 -75 -23 -215 -74 -246 -91
-13 -7 -25 -12 -27 -11 -1 1 -18 -5 -38 -13 -20 -8 -38 -15 -40 -15 -15 0
-174 -84 -174 -92 0 -5 -15 -15 -34 -23 -19 -8 -37 -19 -40 -24 -4 -5 -41 -34
-84 -64 -42 -30 -108 -89 -147 -132 -38 -42 -82 -90 -97 -106 -15 -16 -34 -42
-42 -57 -8 -15 -23 -36 -35 -46 -12 -11 -21 -22 -21 -26 0 -4 -16 -25 -36 -46
-19 -22 -41 -50 -48 -64 -42 -80 -145 -290 -156 -317 -10 -27 -18 -33 -44 -34
-37 0 -103 -26 -137 -54 -38 -31 -78 -131 -84 -211 -17 -220 -14 -333 16 -539
39 -273 125 -375 315 -375 l61 0 57 -89 c45 -72 78 -108 173 -191 65 -57 139
-116 166 -133 26 -16 47 -31 45 -33 -2 -1 -36 -10 -76 -18 -81 -17 -142 -53
-234 -138 -59 -55 -118 -132 -142 -184 -7 -17 -26 -50 -42 -75 -15 -24 -29
-52 -31 -61 -1 -9 -15 -38 -30 -65 -16 -26 -39 -75 -52 -108 -13 -33 -37 -89
-54 -125 -64 -143 -97 -225 -97 -242 0 -7 -8 -29 -19 -48 -25 -48 -126 -541
-138 -678 -3 -28 0 -91 7 -140 17 -132 106 -305 225 -442 75 -85 129 -140 139
-140 18 -1 70 -59 73 -83 5 -37 11 -70 19 -106 l7 -33 -25 16 c-13 9 -46 22
-73 31 -45 13 -52 13 -89 -4 -23 -10 -58 -36 -79 -57 -35 -36 -157 -216 -157
-232 0 -4 -15 -39 -34 -78 -19 -39 -38 -84 -42 -100 -3 -16 -15 -56 -26 -89
-25 -75 -26 -191 -4 -298 24 -111 42 -147 106 -215 56 -57 108 -91 167 -106
59 -16 181 -20 197 -7 6 4 41 11 78 15 49 5 86 16 135 42 67 36 149 91 188
127 36 34 74 57 78 50 2 -5 5 -46 6 -93 1 -47 6 -112 11 -145 5 -33 11 -85 14
-117 4 -38 15 -73 36 -107 16 -29 30 -54 30 -58 0 -3 14 -22 30 -43 17 -21 30
-41 30 -45 0 -11 83 -84 103 -91 9 -3 17 -10 17 -15 0 -6 4 -8 9 -5 4 3 28 -7
52 -22 43 -27 192 -82 221 -82 8 0 28 -7 45 -15 78 -39 300 -44 461 -9 156 33
232 57 290 90 70 41 177 132 198 171 10 17 22 29 27 26 6 -4 7 -1 3 6 -5 7 -2
20 6 29 40 48 71 191 40 184 -6 -1 -12 3 -12 8 0 14 -76 116 -111 151 -14 14
-54 36 -88 48 l-61 23 5 57 c3 31 7 128 10 216 4 178 5 183 42 345 25 111 50
166 89 202 27 24 103 57 123 53 9 -2 21 -4 28 -4 29 -2 175 -180 205 -249 11
-26 31 -70 44 -99 13 -28 30 -76 38 -106 8 -30 21 -68 29 -84 8 -15 20 -55 26
-86 15 -84 50 -174 124 -320 55 -107 75 -137 129 -187 99 -94 247 -157 338
-144 14 2 55 4 93 4 77 2 207 40 287 87 14 8 45 23 70 34 111 49 192 94 228
128 78 72 112 101 116 101 7 0 175 168 204 203 12 15 22 31 22 36 0 5 16 26
35 47 19 20 35 40 35 45 0 4 6 12 13 16 22 14 84 125 107 192 23 70 33 201 17
241 -15 37 -88 102 -149 133 -46 23 -70 28 -173 33 -126 7 -149 2 -286 -53
-46 -18 -44 -19 -117 74 -36 46 -36 18 2 268 9 55 18 125 21 155 3 30 11 91
17 135 6 44 10 189 9 323 -1 133 1 242 4 242 3 0 33 -13 68 -29 44 -20 75 -44
107 -82 69 -83 145 -156 180 -174 66 -34 129 -44 185 -29 121 31 222 95 252
159 8 16 25 48 37 71 38 67 58 165 55 273 -2 62 -8 104 -17 118 -8 12 -12 28
-10 35 2 6 29 -26 60 -73 75 -113 109 -153 133 -157 11 -2 29 -12 41 -23 11
-10 28 -19 37 -19 10 0 58 34 108 75 49 41 101 82 114 91 14 9 25 23 25 30 0
8 6 14 14 14 15 0 30 15 201 189 65 67 136 146 156 174 20 29 42 51 48 49 7
-1 9 2 6 8 -4 7 1 21 12 33 10 12 39 51 63 87 24 36 48 67 52 68 4 2 8 9 8 16
0 7 9 21 20 31 11 10 20 24 20 32 0 7 4 13 9 13 5 0 14 13 19 29 5 15 24 41
40 57 32 30 92 140 92 167 0 9 9 22 20 30 11 8 17 16 14 20 -3 3 3 15 14 27
11 12 23 38 27 58 4 21 10 42 15 47 4 6 13 27 19 47 9 25 17 35 27 31 8 -3 14
0 14 6 0 6 -5 11 -11 11 -7 0 -8 7 -4 18 10 27 44 215 42 237 -1 14 3 19 15
17 16 -2 16 0 3 25 -8 15 -15 33 -15 40 0 6 -9 15 -20 18 -11 3 -20 12 -20 20
0 11 -22 33 -80 78 -54 42 -212 97 -279 97 -88 0 -296 -22 -384 -41 -49 -10
-97 -19 -107 -19 -10 0 -31 -5 -47 -12 -15 -7 -32 -13 -38 -13 -12 -2 -29 -8
-110 -41 -33 -13 -69 -26 -80 -27 -29 -5 -77 -18 -95 -24 -8 -4 -18 -7 -22 -8
-5 -2 -10 -4 -13 -5 -3 -1 -8 -3 -12 -4 -12 -2 -89 -26 -188 -59 -76 -25 -198
-80 -215 -97 -3 -3 -27 -16 -54 -30 -45 -24 -107 -74 -201 -165 -55 -53 -83
-75 -95 -75 -6 0 -10 -9 -10 -20 0 -11 -5 -20 -10 -20 -17 0 0 -80 27 -135 14
-27 50 -88 79 -134 30 -47 54 -90 54 -95 0 -6 -22 -23 -49 -39 l-50 -27 -23
47 c-13 27 -30 67 -38 91 -7 23 -17 42 -21 42 -5 0 -15 21 -23 48 -18 60 -97
213 -174 337 -17 28 -41 68 -53 90 -12 22 -29 47 -38 56 -9 9 -32 36 -51 59
-65 80 -169 176 -217 201 -40 20 -62 24 -133 23 -47 0 -104 -3 -126 -7 -39 -6
-42 -5 -54 22 -11 27 -9 34 21 78 18 26 48 67 68 89 57 67 97 125 122 179 76
168 71 161 104 154 86 -19 205 -1 239 36 27 29 60 135 62 200 0 28 8 106 16
175 19 156 21 201 22 425 1 259 -16 315 -112 368 -29 16 -57 21 -131 21 l-93
2 -38 79 c-54 111 -125 195 -265 313 -100 84 -142 112 -250 165 -168 82 -351
141 -505 162 -25 3 -52 8 -60 10 -85 25 -250 42 -505 51 -93 3 -172 7 -175 8
-3 1 -16 1 -30 -1z m305 -143 c255 -10 441 -39 670 -105 159 -46 375 -154 465
-233 118 -104 205 -199 238 -261 17 -33 32 -62 32 -64 0 -2 -31 12 -69 31 -57
28 -88 36 -163 43 -103 10 -192 25 -223 39 -11 5 -76 16 -145 25 -69 9 -156
22 -195 30 -53 10 -150 12 -390 10 -310 -3 -374 -7 -630 -46 -94 -14 -392 -85
-485 -116 -77 -25 -119 -37 -180 -53 -19 -5 -54 -18 -77 -30 -23 -11 -48 -20
-56 -20 -8 0 -36 -12 -63 -26 -27 -15 -71 -38 -97 -51 -27 -14 -63 -38 -81
-54 -19 -16 -38 -29 -42 -29 -17 -1 -116 -116 -166 -195 -66 -104 -72 -109
-64 -60 7 40 15 62 55 143 11 24 21 49 21 55 0 11 69 117 82 127 4 3 9 15 11
25 4 24 54 105 65 105 5 0 16 16 25 36 33 69 153 214 250 302 40 37 122 92
136 92 5 0 33 16 62 36 93 63 241 134 349 166 19 5 40 14 45 18 35 28 307 82
370 73 11 -2 124 -7 250 -13z m635 -615 c13 -4 56 -10 95 -15 156 -20 404 -60
460 -75 136 -38 273 -136 295 -213 15 -53 23 -366 11 -437 -29 -177 -98 -420
-132 -470 -4 -5 -20 -45 -37 -87 -38 -94 -80 -164 -124 -206 -10 -9 -18 -20
-18 -25 0 -5 -13 -23 -29 -40 -16 -18 -61 -69 -101 -115 -40 -46 -83 -88 -96
-94 -13 -6 -24 -15 -24 -20 0 -5 -8 -12 -17 -16 -10 -4 -43 -23 -73 -43 -98
-65 -361 -163 -518 -193 -104 -20 -363 -59 -392 -58 -3 0 -15 -4 -27 -9 -51
-19 -279 -21 -483 -5 -113 9 -233 21 -267 26 -130 21 -324 96 -363 141 -3 3
-30 22 -60 42 -30 20 -80 59 -110 87 -30 28 -74 64 -97 81 -25 17 -47 43 -54
64 -7 19 -16 35 -20 35 -4 0 -19 30 -35 68 -16 37 -37 79 -47 93 -11 15 -25
52 -33 83 -30 119 -42 162 -52 186 -11 28 -26 139 -25 185 1 33 70 257 99 321
63 135 208 300 327 371 160 96 516 216 782 263 39 7 90 18 115 25 25 8 79 16
120 20 41 3 93 11 115 17 73 19 747 30 815 13z m1049 -150 c16 -8 32 -22 36
-32 13 -31 17 -244 6 -338 -6 -49 -13 -157 -16 -240 -11 -267 -31 -364 -75
-376 -39 -11 -88 -10 -95 1 -7 11 0 46 49 235 31 118 31 123 30 350 -1 199 -4
241 -22 310 -12 44 -18 83 -14 87 6 5 20 9 65 17 4 0 21 -6 36 -14z m-3562
-577 c1 -186 11 -361 23 -408 5 -19 17 -71 26 -115 9 -44 29 -115 45 -157 35
-94 35 -98 4 -98 -45 0 -94 27 -105 57 -6 15 -14 37 -19 48 -25 59 -31 80 -41
157 -6 46 -13 94 -15 108 -2 14 -6 88 -9 165 -4 149 6 291 25 328 13 25 49 67
58 67 4 0 7 -69 8 -152z m5788 -1105 c76 -37 102 -57 114 -88 26 -74 5 -206
-52 -325 -17 -36 -30 -70 -29 -76 1 -7 -4 -14 -13 -18 -8 -3 -15 -12 -15 -20
0 -7 -7 -17 -16 -20 -8 -3 -13 -10 -9 -15 3 -6 -1 -13 -9 -18 -20 -11 -76
-120 -76 -147 0 -13 -11 -33 -25 -46 -14 -13 -25 -28 -25 -34 0 -6 -14 -27
-31 -46 -17 -19 -44 -55 -61 -80 -18 -25 -34 -47 -37 -50 -14 -12 -51 -70 -51
-80 0 -5 -4 -10 -8 -10 -5 0 -23 -21 -40 -47 -17 -27 -50 -68 -73 -93 -110
-118 -128 -136 -150 -156 -13 -11 -45 -43 -71 -70 -60 -64 -125 -120 -185
-164 -26 -19 -56 -44 -66 -55 -19 -20 -19 -20 -40 9 -26 35 -139 197 -171 246
-13 19 -31 41 -40 49 -9 7 -16 20 -16 27 0 8 -4 14 -10 14 -5 0 -10 6 -10 13
0 6 -10 24 -23 38 -22 26 -53 65 -80 103 -12 17 -12 21 5 38 44 44 -7 115 -73
101 -25 -5 -31 0 -59 48 -17 30 -35 61 -40 69 -5 8 -28 49 -52 90 -23 41 -66
109 -95 151 -29 42 -53 83 -53 91 0 19 142 149 232 212 79 55 252 135 348 160
68 18 261 79 390 123 110 38 261 71 380 84 58 6 107 13 110 16 13 13 187 -6
225 -24z m-2765 -65 c19 -30 54 -82 77 -116 77 -109 160 -305 273 -637 49
-145 119 -424 107 -430 -1 -1 -56 -33 -122 -72 -66 -39 -151 -85 -189 -102
-38 -17 -100 -51 -138 -77 -38 -25 -89 -56 -114 -69 -24 -13 -71 -42 -104 -64
-33 -22 -60 -36 -60 -31 0 4 7 14 17 21 19 16 77 140 92 196 10 37 12 63 27
263 7 106 -8 231 -32 251 -8 6 -14 19 -14 29 0 21 -34 62 -44 53 -4 -4 -4 0
-1 9 5 13 -15 27 -92 65 l-98 48 -276 0 c-177 0 -281 -4 -290 -10 -8 -6 -39
-12 -69 -13 -30 -2 -68 -7 -85 -11 -45 -13 -124 -28 -275 -51 -74 -12 -162
-28 -194 -36 -32 -8 -61 -12 -64 -10 -2 3 -17 -1 -32 -9 -36 -19 -54 -69 -76
-210 -20 -134 -14 -254 20 -418 37 -172 43 -190 86 -255 22 -33 40 -63 40 -66
0 -8 -40 -62 -81 -110 -106 -124 -171 -196 -178 -196 -17 0 -197 204 -234 266
-43 72 -50 121 -32 224 4 25 8 57 8 73 0 15 3 27 7 27 4 0 11 32 15 72 3 40
13 115 21 168 9 52 17 113 20 135 18 165 30 228 56 308 18 58 27 101 23 117
-4 14 -8 84 -10 155 -2 72 -6 145 -10 163 -7 35 -5 36 45 23 19 -5 111 -12
203 -15 93 -4 177 -11 187 -16 40 -21 366 0 512 34 35 8 86 17 113 20 199 25
275 44 537 139 108 39 232 109 317 179 31 25 61 45 66 44 6 -1 26 -27 45 -58z
m314 -3 c33 -14 77 -55 171 -160 73 -82 241 -371 299 -515 10 -25 26 -63 36
-85 35 -76 74 -160 78 -167 8 -16 -294 -176 -307 -162 -5 5 -18 52 -31 104
-22 94 -66 236 -79 255 -4 6 -16 39 -26 75 -10 36 -22 69 -27 74 -4 6 -8 16
-8 23 0 63 -224 525 -262 541 -16 7 -7 21 15 24 63 9 108 7 141 -7z m2716 -15
c0 -5 -2 -10 -4 -10 -3 0 -8 5 -11 10 -3 6 -1 10 4 10 6 0 11 -4 11 -10z
m-5242 -305 c31 -10 56 -24 63 -36 11 -22 15 -214 5 -289 -4 -24 -16 -90 -27
-145 -33 -155 -51 -256 -53 -300 -1 -22 -5 -60 -9 -85 -4 -25 -14 -92 -22
-150 -8 -58 -19 -121 -25 -140 -17 -57 -22 -100 -24 -185 -1 -74 2 -85 34
-142 19 -35 38 -63 42 -63 5 0 8 -7 8 -14 0 -18 70 -101 179 -215 57 -59 81
-91 81 -109 0 -33 37 -65 67 -57 13 3 23 1 23 -5 0 -5 6 -10 13 -10 19 0 63
-50 74 -85 6 -20 19 -33 40 -40 66 -22 146 -115 98 -115 -22 0 -206 -102 -225
-125 -7 -8 -21 -15 -31 -15 -11 0 -28 -9 -39 -20 -11 -11 -25 -20 -32 -20 -6
0 -25 -11 -42 -23 -17 -13 -43 -27 -58 -30 -14 -4 -39 -18 -55 -31 -15 -13
-48 -33 -73 -44 -25 -12 -65 -33 -90 -47 -25 -14 -52 -25 -62 -25 -9 0 -56 25
-105 55 -48 30 -113 69 -142 87 -30 18 -91 65 -135 103 -45 39 -104 88 -132
110 -86 68 -190 191 -233 276 -23 44 -41 86 -41 94 0 8 -4 15 -9 15 -6 0 -13
21 -16 48 -3 26 -10 67 -16 91 -8 34 -5 72 11 170 11 69 27 149 35 176 8 28
24 100 36 160 12 61 25 126 29 145 13 59 80 241 115 315 18 39 51 113 74 165
46 108 85 186 104 209 8 9 38 57 67 106 109 186 208 252 381 254 36 1 89 -6
117 -14z m1795 -484 c81 -35 103 -57 127 -129 20 -59 22 -78 16 -181 -9 -165
-22 -265 -42 -306 -19 -41 -97 -130 -126 -146 -20 -11 -93 -33 -158 -48 -295
-70 -283 -67 -415 -75 -60 -4 -136 -9 -168 -12 -33 -2 -66 0 -79 7 -17 9 -28
7 -57 -8 -37 -20 -70 -23 -129 -9 -25 6 -44 23 -77 69 -51 69 -65 104 -95 236
-35 155 -44 255 -30 341 18 117 29 150 48 150 9 0 41 3 70 7 l52 6 -25 -54
c-29 -64 -31 -99 -7 -126 24 -27 50 -35 75 -21 33 17 112 89 109 99 -1 5 7 9
18 9 22 0 25 8 9 30 -9 13 -10 13 -6 -2 4 -12 0 -16 -13 -15 -11 1 -17 3 -15
5 2 3 0 13 -6 23 -6 13 -6 19 1 19 5 0 10 5 10 10 0 6 -7 10 -16 10 -8 0 -13
4 -10 9 4 5 -2 7 -13 4 -21 -5 -40 15 -19 21 7 3 38 7 68 10 104 11 188 24
198 30 14 8 177 37 257 45 39 4 145 8 236 9 146 2 171 0 212 -17z m1635 -185
l34 -58 -26 -27 c-18 -19 -45 -31 -88 -40 -119 -25 -288 -148 -336 -243 -26
-54 -62 -88 -127 -120 -101 -51 -116 -60 -128 -79 -6 -10 -15 -19 -19 -19 -3
0 -44 -23 -90 -51 -46 -29 -99 -61 -118 -71 -19 -11 -44 -29 -56 -39 -11 -10
-25 -19 -31 -19 -6 0 -16 -7 -23 -15 -7 -8 -37 -27 -67 -42 -30 -15 -62 -35
-72 -44 -10 -9 -27 -20 -39 -23 -12 -4 -22 -12 -22 -17 0 -5 -5 -9 -11 -9 -17
0 -79 -30 -124 -60 -137 -92 -280 -178 -350 -210 -45 -20 -93 -48 -107 -62
-15 -13 -44 -33 -65 -44 -21 -10 -44 -25 -51 -31 -7 -7 -19 -13 -25 -13 -7 -1
-43 -21 -82 -46 -38 -24 -81 -50 -95 -56 -14 -7 -27 -15 -30 -18 -6 -6 -31
-20 -170 -92 -52 -27 -102 -56 -111 -64 -8 -8 -21 -14 -27 -14 -7 0 -12 -4
-12 -9 0 -16 -52 -19 -87 -5 -18 8 -73 20 -121 27 l-87 13 40 20 c94 47 242
135 327 195 15 10 32 19 38 19 5 0 10 4 10 8 0 5 57 46 128 92 70 46 156 107
192 135 36 28 83 62 105 75 21 14 47 31 57 40 45 40 142 109 154 110 6 0 19 9
30 21 10 12 35 29 54 39 19 10 80 48 134 84 55 37 110 69 123 72 12 4 23 10
23 14 0 10 108 70 125 70 7 0 24 11 39 25 15 14 31 25 36 25 4 0 31 15 59 34
28 19 61 38 74 42 12 3 29 13 38 20 8 8 35 24 60 37 24 13 84 46 134 72 65 36
99 48 122 46 29 -2 35 2 47 29 7 17 22 37 34 43 12 7 54 29 94 50 40 22 80 45
88 52 8 7 44 27 80 44 35 18 69 36 75 40 5 5 21 12 34 16 13 4 53 27 90 51 36
24 70 43 75 41 6 -2 26 -29 44 -61z m150 -213 c35 -52 36 -56 6 -37 -45 28
-64 46 -58 55 10 17 33 9 52 -18z m-104 -122 c59 -29 73 -41 111 -100 62 -97
74 -124 83 -188 21 -152 -59 -323 -173 -374 -154 -68 -254 9 -358 276 -26 66
-47 130 -47 142 0 34 18 73 38 81 33 13 102 67 102 80 0 6 10 12 23 13 22 0
22 0 1 9 -33 13 -39 41 -12 63 59 46 135 46 232 -2z m301 -141 c3 -5 1 -10 -4
-10 -6 0 -11 5 -11 10 0 6 2 10 4 10 3 0 8 -4 11 -10z m-801 -180 c10 -28 17
-53 14 -55 -7 -7 -48 7 -48 16 0 5 -7 6 -16 2 -17 -6 -34 12 -34 37 0 13 44
49 61 50 3 0 13 -23 23 -50z m-196 -205 c-3 -46 -5 -50 -33 -57 -225 -55 -290
-69 -345 -73 -55 -5 -62 -4 -46 7 10 7 40 27 65 45 25 18 74 46 108 64 34 17
70 39 82 50 11 10 24 19 30 19 5 0 11 5 13 11 2 6 26 23 53 38 l50 28 13 -41
c7 -23 11 -63 10 -91z m-1067 108 c-8 -3 -33 -19 -55 -35 -23 -16 -52 -36 -66
-45 -32 -22 -153 -116 -160 -124 -3 -4 -34 -25 -70 -48 -36 -22 -70 -44 -76
-48 -63 -47 -94 -56 -115 -37 -16 15 -23 14 -86 -4 -69 -21 -247 -52 -296 -52
-26 0 -25 3 43 92 39 51 70 98 70 105 0 7 4 13 9 13 6 0 17 13 27 28 22 39 64
52 181 57 90 4 142 9 248 21 22 3 42 9 43 14 2 6 13 10 25 10 12 0 74 13 137
29 103 27 181 40 141 24z m-950 -108 c34 -6 36 -8 25 -29 -14 -27 -118 -159
-165 -208 -27 -29 -44 -39 -80 -43 -25 -3 -62 -8 -81 -11 l-34 -6 39 44 c22
24 80 94 130 156 72 91 93 112 110 108 11 -2 36 -8 56 -11z m2013 -211 c3 -9
6 -46 6 -84 l0 -69 -55 -16 c-30 -8 -101 -22 -157 -31 -57 -8 -114 -16 -128
-19 -211 -33 -303 -41 -498 -46 -81 -2 -106 0 -118 12 -13 14 -8 19 48 49 66
34 128 71 215 127 53 34 73 40 73 23 0 -15 257 -4 350 14 41 9 111 24 155 35
102 24 102 24 109 5z m-1879 -239 c-38 -24 -75 -48 -80 -52 -22 -18 -94 -53
-106 -53 -8 0 -36 20 -64 44 -50 44 -50 44 -31 65 16 18 31 21 100 22 45 1
108 5 141 9 115 14 115 13 40 -35z m1865 -73 c0 -4 -5 -45 -10 -91 -6 -46 -13
-100 -15 -120 -10 -90 -43 -254 -52 -260 -6 -3 -13 -15 -17 -26 -3 -11 -18
-26 -34 -32 -15 -7 -55 -39 -89 -72 -93 -89 -199 -164 -278 -197 -38 -16 -108
-54 -155 -85 -93 -60 -184 -107 -227 -115 -26 -4 -30 0 -56 58 -15 35 -27 66
-27 70 0 8 -81 140 -91 148 -3 3 -10 13 -15 22 -22 40 -149 158 -197 184 -67
36 -129 36 -216 0 -139 -56 -204 -187 -260 -520 l-17 -99 -164 2 c-209 3 -363
15 -515 40 -74 12 -172 21 -245 22 -69 2 -89 14 -60 41 11 10 25 16 32 12 7
-5 8 -3 3 6 -6 10 -3 12 13 8 15 -4 22 -2 22 8 0 12 6 16 26 13 3 0 14 10 25
22 10 12 19 19 19 15 0 -4 12 5 27 19 15 14 33 25 38 25 6 0 26 -16 45 -35 61
-63 188 -88 305 -61 39 9 116 39 171 66 122 59 225 149 267 232 25 49 27 65
31 192 l3 138 63 29 c34 17 65 28 68 25 2 -3 -3 -8 -12 -12 -9 -3 -16 -11 -16
-16 0 -6 6 -6 15 2 15 12 55 5 55 -11 0 -14 46 -11 185 15 72 13 166 30 210
37 92 14 177 50 193 82 6 12 13 42 14 66 3 50 -14 45 173 56 182 10 420 41
560 70 64 14 162 31 193 34 6 0 12 -2 12 -7z m-1079 -126 c-14 -16 -68 -32
-172 -51 -130 -23 -142 -21 -86 15 26 17 71 42 100 56 29 15 66 37 83 50 17
13 34 24 38 24 4 0 15 8 24 17 16 16 17 13 20 -41 2 -32 -2 -63 -7 -70z m-891
-241 c19 -3 57 -22 84 -42 l49 -35 -6 -73 c-10 -131 -72 -212 -218 -282 -52
-24 -114 -52 -139 -60 -82 -28 -223 -1 -232 44 -5 22 9 105 23 142 10 26 11
26 26 6 13 -16 15 -17 10 -2 -4 9 -2 17 3 17 6 0 10 -8 11 -17 0 -15 2 -15 8
2 10 23 -6 37 -31 29 -10 -3 -18 -2 -18 1 0 22 81 164 112 196 72 74 183 100
318 74z m-521 -136 c-18 -35 -37 -75 -44 -89 -7 -14 -18 -51 -24 -82 -11 -52
-48 -108 -72 -108 -4 0 -14 -6 -21 -12 -23 -23 -82 -63 -113 -78 -16 -8 -38
-21 -47 -29 -10 -8 -18 -11 -18 -7 0 4 -18 -3 -40 -15 l-41 -23 -69 73 c-39
40 -68 76 -65 81 2 4 30 25 62 46 32 21 60 42 63 45 11 13 130 89 186 119 87
48 174 96 224 124 24 14 46 24 47 22 2 -2 -11 -32 -28 -67z m-963 -118 c21
-16 59 -47 84 -69 l45 -41 -64 -63 c-74 -73 -117 -155 -127 -240 -6 -50 -3
-62 19 -101 15 -25 41 -57 59 -72 33 -28 34 -28 141 -22 106 6 232 39 282 73
26 18 42 18 42 -1 0 -8 -2 -13 -5 -10 -8 8 -33 -25 -27 -35 4 -6 3 -9 -2 -8
-4 2 -27 -16 -51 -39 -23 -24 -46 -43 -52 -43 -5 0 -24 -15 -42 -32 -38 -38
-134 -99 -203 -128 -51 -22 -211 -38 -257 -27 -34 9 -103 65 -132 107 -30 46
-56 160 -56 252 0 55 7 92 29 153 51 141 119 264 195 353 28 31 74 29 122 -7z
m266 15 c37 -8 78 -12 90 -8 21 5 22 4 8 -13 -9 -11 -10 -16 -2 -11 22 13 13
-16 -14 -40 -30 -29 -38 -29 -62 -6 -10 9 -31 28 -48 42 -27 23 -50 50 -42 50
2 0 33 -6 70 -14z m3168 -87 c0 -6 7 -8 17 -5 17 7 63 -28 63 -48 0 -6 12 -22
25 -35 14 -13 25 -26 25 -30 0 -10 67 -41 87 -41 9 0 30 10 47 23 17 13 66 38
109 56 72 30 83 32 167 27 125 -7 180 -40 180 -111 0 -57 -21 -134 -39 -148
-10 -6 -31 -39 -47 -72 -16 -33 -43 -72 -60 -87 -17 -15 -37 -41 -44 -58 -7
-16 -18 -30 -25 -30 -7 0 -25 -18 -39 -39 -15 -22 -42 -46 -59 -55 -18 -8 -66
-52 -107 -97 -68 -75 -191 -169 -220 -169 -6 0 -42 -15 -78 -34 -139 -72 -210
-95 -297 -97 -175 -3 -314 56 -374 161 -46 80 -91 173 -91 191 0 11 -9 36 -20
56 -11 21 -20 43 -20 49 0 7 -7 25 -15 40 -8 16 -15 41 -15 55 0 23 8 29 70
53 38 15 86 38 105 52 20 13 40 24 44 24 5 0 33 16 62 35 29 20 100 60 158 90
60 32 162 98 236 154 126 96 155 113 155 90z m-3157 -188 c9 -12 17 -26 17
-31 0 -6 3 -10 8 -10 15 0 92 -80 92 -96 0 -10 -3 -15 -6 -11 -4 3 -27 -5 -53
-18 -25 -13 -71 -27 -101 -31 -30 -3 -66 -8 -80 -10 -14 -2 -37 1 -52 7 -22 9
-28 18 -28 41 0 44 22 79 90 141 65 61 75 62 113 18z m740 -356 c92 -17 283
-33 486 -39 170 -5 185 -11 197 -71 3 -17 1 -58 -6 -91 -6 -32 -13 -82 -16
-111 -5 -50 -4 -52 25 -67 16 -9 38 -16 47 -16 48 0 102 -27 147 -75 27 -27
53 -57 58 -66 11 -22 -42 -130 -77 -155 -15 -10 -43 -33 -63 -50 -64 -56 -146
-88 -319 -125 -98 -20 -384 -6 -417 21 -5 4 -37 16 -70 25 -64 19 -177 73
-211 102 -25 21 -96 127 -124 185 -27 56 -33 92 -50 280 -12 142 0 224 38 256
26 22 31 23 154 17 71 -3 161 -12 201 -20z"/>
<path d="M5110 8747 c0 -7 -10 -30 -21 -52 -13 -24 -22 -60 -23 -87 -1 -27 -4
-48 -8 -48 -5 0 -8 -13 -8 -30 0 -16 -4 -30 -8 -30 -4 0 -8 -10 -9 -22 0 -13
1 -17 4 -10 3 6 11 12 19 12 8 0 14 -6 14 -12 0 -10 2 -10 9 0 4 8 10 13 12
12 2 -1 15 3 29 9 14 6 41 17 61 25 50 19 92 77 95 129 2 49 -16 81 -59 102
-37 19 -107 20 -107 2z"/>
<path d="M4570 8719 c-45 -50 -55 -147 -33 -342 17 -158 18 -271 4 -316 -13
-41 -7 -51 16 -29 13 13 20 14 35 5 15 -9 20 -9 27 2 7 10 13 11 29 2 11 -6
48 -11 82 -11 l61 0 22 48 c28 61 34 241 17 464 -15 184 -14 183 -133 198 -99
13 -95 14 -127 -21z m124 -131 c11 -56 19 -343 11 -384 -8 -36 -10 -30 -22 66
-8 58 -16 162 -19 233 -5 110 -4 126 9 121 8 -3 18 -19 21 -36z"/>
<path d="M4284 8452 c-6 -4 -15 -20 -21 -37 -6 -18 -19 -32 -34 -36 -23 -7
-23 -7 -1 -8 16 -1 22 -7 23 -23 3 -95 46 -138 114 -112 22 9 54 75 62 130 5
42 4 48 -23 70 -29 23 -96 33 -120 16z"/>
<path d="M4505 8010 c-3 -5 -1 -10 4 -10 6 0 11 5 11 10 0 6 -2 10 -4 10 -3 0
-8 -4 -11 -10z"/>
<path d="M8795 9570 c-3 -5 -1 -10 4 -10 6 0 11 5 11 10 0 6 -2 10 -4 10 -3 0
-8 -4 -11 -10z"/>
<path d="M9178 705 c-2 -2 -205 -5 -451 -6 -409 -1 -447 -2 -447 -17 0 -10 -3
-13 -8 -7 -10 15 -55 17 -63 3 -4 -6 -12 -7 -19 -3 -20 12 -210 13 -210 1 0
-7 -3 -8 -8 -1 -8 11 -47 13 -57 3 -4 -4 -12 -5 -19 -2 -26 10 -86 10 -90 0
-3 -7 -5 -7 -5 -1 -1 6 -56 9 -151 7 l-150 -3 -1 -97 c0 -53 -3 -114 -7 -134
l-7 -37 -50 18 c-28 10 -66 25 -85 34 -52 25 -246 75 -320 82 -19 2 -57 8 -85
14 -27 5 -53 7 -57 5 -5 -3 -11 2 -14 11 -5 13 -9 14 -15 4 -9 -15 -59 -19
-59 -4 0 5 -4 4 -9 -4 -7 -11 -12 -7 -20 20 -9 31 -10 32 -8 5 2 -28 1 -28
-62 -33 -46 -3 -66 -1 -72 9 -7 10 -9 9 -9 -5 0 -14 -9 -17 -60 -16 -33 1 -60
5 -60 9 0 5 -3 16 -7 26 -4 12 -3 15 5 10 8 -5 12 3 12 25 0 28 -3 31 -22 25
-13 -3 -50 -6 -84 -6 -68 0 -52 12 -239 -181 -81 -83 -274 -229 -304 -229 -5
0 -14 -7 -21 -15 -7 -8 -16 -13 -20 -10 -4 3 -10 -2 -14 -10 -3 -8 -12 -15
-21 -15 -8 0 -15 -4 -15 -9 0 -5 -8 -12 -17 -15 -10 -4 -37 -18 -61 -31 -24
-14 -58 -27 -75 -30 -18 -3 -57 -13 -87 -22 -41 -13 -96 -17 -220 -17 -163 -1
-192 2 -260 23 -19 6 -47 11 -62 11 -16 0 -28 4 -28 9 0 6 -9 8 -20 6 -11 -2
-20 -1 -20 3 0 4 -19 8 -41 9 -23 0 -45 7 -50 14 -4 8 -11 10 -15 6 -4 -4 -15
0 -25 9 -9 8 -26 16 -38 17 -11 1 -21 4 -21 8 0 3 -18 12 -40 19 -22 7 -45 19
-51 27 -6 7 -16 13 -21 13 -5 0 -24 11 -42 25 -18 14 -37 25 -42 25 -6 0 -27
18 -47 39 -33 35 -37 45 -37 93 0 38 3 49 10 38 7 -11 10 -7 10 18 0 32 -14
43 -24 20 -3 -9 -10 -7 -22 7 -16 20 -16 20 -11 -2 4 -20 3 -21 -17 -10 -11 7
-25 17 -29 22 -5 6 -6 2 -3 -8 3 -10 6 -21 6 -23 0 -3 5 -2 10 1 6 3 10 -1 10
-9 0 -9 -4 -16 -10 -16 -5 0 -10 -4 -10 -10 0 -5 7 -10 15 -10 8 0 15 8 15 17
0 13 3 14 12 5 9 -9 9 -15 0 -24 -15 -15 -16 -28 -2 -28 6 0 15 10 20 23 8 19
9 17 9 -15 1 -21 -2 -38 -6 -38 -26 1 -83 75 -83 106 0 15 -6 24 -16 24 -8 0
-13 4 -10 8 3 5 -39 8 -92 8 -86 -1 -97 -3 -96 -18 1 -10 -2 -18 -7 -18 -5 0
-8 -19 -8 -42 l2 -43 7 40 7 40 2 -50 c2 -27 5 -43 8 -35 2 8 6 21 9 28 5 16
54 -34 54 -55 0 -8 5 -11 10 -8 6 3 10 -1 10 -9 0 -9 6 -16 14 -16 9 0 13 -8
10 -22 -2 -13 -2 -17 2 -10 8 17 24 15 24 -3 0 -9 6 -12 15 -9 8 4 15 1 15 -4
0 -11 38 -53 55 -62 6 -2 18 -11 28 -20 10 -8 19 -13 20 -10 2 3 18 -11 37
-30 19 -19 39 -35 44 -35 18 0 76 -29 76 -38 0 -5 4 -6 9 -2 5 3 17 -5 25 -17
9 -12 16 -17 16 -10 0 10 5 9 23 0 12 -7 24 -15 27 -18 3 -3 15 -6 28 -8 12
-2 35 -10 50 -18 22 -11 112 -14 520 -14 315 0 492 4 492 10 0 5 11 12 25 16
14 3 25 9 25 13 0 4 12 12 28 19 50 23 72 37 72 44 0 5 6 8 13 8 6 0 29 16 50
35 21 19 50 38 65 42 35 8 92 53 93 73 0 11 2 11 6 2 3 -8 22 4 55 35 27 26
54 47 59 45 6 -1 8 1 5 6 -3 5 8 21 24 35 29 26 30 26 43 7 8 -11 16 -17 20
-14 3 3 38 8 79 10 40 2 102 6 138 9 36 3 100 7 142 8 43 1 78 6 78 10 0 5 10
5 23 2 12 -4 27 -8 32 -9 6 0 13 -5 17 -11 5 -6 8 -5 8 3 0 6 9 12 19 12 11 0
22 -6 24 -12 3 -7 6 -8 6 -3 1 16 92 5 98 -11 3 -8 9 -14 15 -14 5 0 6 5 3 10
-3 6 1 10 9 10 9 0 16 -6 16 -12 0 -9 3 -9 8 -3 7 11 18 12 42 2 8 -3 22 -5
30 -5 8 1 35 -5 60 -12 25 -7 52 -14 60 -16 48 -11 185 -65 188 -74 2 -5 10
-10 18 -10 25 0 33 -43 28 -154 l-4 -107 32 3 c22 2 34 9 38 23 5 18 32 35 29
17 -7 -40 -1 -43 81 -41 69 2 80 4 75 18 -2 9 0 23 6 31 8 12 9 11 5 -5 -3
-11 -1 -27 4 -35 8 -13 11 -13 22 -1 7 8 8 11 2 8 -7 -4 -10 5 -8 28 1 20 -2
33 -7 30 -5 -4 -4 6 1 20 6 15 11 45 12 66 1 22 4 42 8 44 4 2 6 -24 4 -58 -1
-34 0 -54 2 -44 7 22 16 22 44 -1 18 -15 20 -19 7 -19 -10 0 -17 4 -17 9 0 4
-5 8 -11 8 -6 0 -9 -8 -7 -17 2 -10 10 -17 17 -15 9 2 10 -2 3 -14 -5 -9 -7
-25 -4 -36 4 -18 5 -18 18 1 8 11 11 26 8 34 -5 14 23 33 34 22 3 -3 0 -5 -8
-5 -10 0 -10 -4 1 -17 11 -13 11 -15 1 -9 -9 6 -12 3 -10 -10 2 -11 -2 -18 -9
-17 -7 2 -13 -1 -13 -6 0 -11 64 -9 68 2 5 17 1 19 -15 6 -16 -12 -17 -12 -6
2 7 8 11 25 8 38 -2 12 0 19 6 16 5 -4 7 -11 3 -16 -3 -6 3 -13 14 -16 11 -2
19 -12 17 -21 -1 -10 0 -11 2 -4 3 6 9 12 15 12 5 0 8 -6 5 -13 -6 -15 55 -18
66 -3 5 8 10 7 15 -2 9 -13 60 -13 79 0 6 5 14 5 18 -2 8 -13 45 -13 45 1 0 5
5 7 12 3 6 -4 21 -8 34 -10 16 -1 21 2 17 13 -3 8 -12 12 -20 8 -11 -4 -13 -1
-9 10 3 9 -1 18 -9 21 -8 4 -15 17 -15 29 0 13 -4 27 -10 30 -14 9 -12 22 4
28 11 4 13 1 9 -10 -4 -10 -2 -14 3 -10 7 4 9 -6 6 -25 -4 -24 -1 -29 12 -26
9 1 16 7 14 13 -2 5 -7 9 -11 7 -4 -1 -3 7 4 19 9 18 8 24 -7 32 -10 6 -37 27
-59 48 -23 22 -45 36 -48 32 -4 -3 -7 -1 -7 6 0 7 -4 9 -10 6 -5 -3 -10 1 -10
10 0 9 -5 13 -11 9 -8 -4 -9 0 -4 15 5 16 2 21 -12 21 -14 0 -15 2 -4 9 8 5
12 18 8 30 -3 12 -1 24 4 27 6 4 6 11 -1 19 -8 9 -8 15 0 20 5 3 10 0 11 -7 0
-7 4 -4 8 6 5 14 19 20 49 22 22 1 46 5 51 9 6 3 11 2 11 -3 0 -6 21 -18 46
-29 l45 -18 -3 -188 -3 -187 768 0 767 0 0 355 0 355 -314 0 c-172 -1 -316 -3
-318 -5z m-1011 -87 c-3 -7 -5 -2 -5 12 0 14 2 19 5 13 2 -7 2 -19 0 -25z
m113 7 c-7 -8 -8 -20 -4 -27 5 -10 4 -10 -6 -1 -10 9 -10 15 -2 26 7 8 8 18 4
22 -4 5 -1 5 6 1 10 -6 10 -11 2 -21z m-83 -27 c-3 -8 -6 -5 -6 6 -1 11 2 17
5 13 3 -3 4 -12 1 -19z m-1707 -34 c0 -8 -4 -12 -10 -9 -5 3 -10 10 -10 16 0
5 5 9 10 9 6 0 10 -7 10 -16z m1782 -166 c-6 -6 -7 1 -4 17 3 17 0 30 -9 36
-11 7 -11 9 -1 9 10 0 13 15 12 53 -1 28 0 57 1 62 2 6 5 -30 6 -79 2 -49 0
-93 -5 -98z m-142 102 c0 -5 -2 -10 -4 -10 -3 0 -8 5 -11 10 -3 6 -1 10 4 10
6 0 11 -4 11 -10z m121 -93 c-10 -9 -11 -8 -5 6 3 10 9 15 12 12 3 -3 0 -11
-7 -18z m-476 -27 c3 -5 1 -10 -4 -10 -6 0 -11 5 -11 10 0 6 2 10 4 10 3 0 8
-4 11 -10z m109 -33 c-3 -8 -12 -18 -20 -21 -11 -4 -10 0 3 18 20 26 27 28 17
3z m-164 -31 c0 -26 -6 -18 -14 19 -5 22 -4 26 4 15 5 -8 10 -24 10 -34z m297
12 c-3 -8 -6 -5 -6 6 -1 11 2 17 5 13 3 -3 4 -12 1 -19z m-270 -35 c-3 -10 -5
-2 -5 17 0 19 2 27 5 18 2 -10 2 -26 0 -35z m250 25 c-3 -8 -6 -5 -6 6 -1 11
2 17 5 13 3 -3 4 -12 1 -19z m-96 3 c-11 -7 -12 -17 -2 -54 15 -60 12 -73 -4
-22 -13 39 -14 39 -15 10 -1 -25 -3 -27 -9 -10 -5 11 -5 27 0 35 4 8 10 23 13
33 3 9 11 17 18 17 10 0 9 -3 -1 -9z m25 -45 c1 -12 5 -32 9 -46 5 -14 5 -22
1 -18 -4 3 -7 9 -7 12 0 3 -6 21 -14 39 -10 25 -11 34 -2 34 7 0 13 -10 13
-21z m-76 -17 c0 -6 -4 -7 -10 -4 -5 3 -10 11 -10 16 0 6 5 7 10 4 6 -3 10
-11 10 -16z m107 -1 c-3 -8 -6 -5 -6 6 -1 11 2 17 5 13 3 -3 4 -12 1 -19z m83
6 c0 -9 -5 -12 -12 -8 -7 5 -9 2 -5 -9 4 -11 2 -14 -8 -11 -11 5 -12 10 -2 25
14 23 27 25 27 3z m-296 -22 c3 -5 -1 -9 -9 -9 -8 0 -12 4 -9 9 3 4 7 8 9 8 2
0 6 -4 9 -8z m51 -2 c3 -5 1 -10 -4 -10 -6 0 -11 5 -11 10 0 6 2 10 4 10 3 0
8 -4 11 -10z m209 -22 c6 -4 20 -1 32 7 20 13 21 12 16 -7 -3 -13 1 -24 12
-30 12 -7 14 -13 6 -29 -8 -14 -7 -19 3 -19 8 0 14 14 15 36 2 25 -1 34 -9 28
-8 -4 -9 -3 -5 4 12 20 36 1 32 -25 -4 -20 -2 -22 9 -13 8 6 11 19 8 28 -3 9
-3 14 1 10 4 -3 8 -13 10 -21 1 -8 8 -23 16 -33 9 -11 10 -15 3 -10 -23 13
-38 -6 -17 -21 16 -11 16 -15 5 -22 -8 -5 -20 -7 -28 -4 -7 3 -13 0 -13 -6 0
-8 -4 -8 -14 1 -11 10 -9 16 11 31 36 28 19 33 -19 6 -44 -32 -64 -32 -78 0
l-12 26 22 -23 c23 -24 41 -25 48 -2 3 8 -1 11 -10 7 -10 -3 -19 6 -29 29 -7
19 -19 40 -26 46 -7 6 -13 18 -12 27 0 13 2 14 6 1 3 -8 11 -18 17 -22z m-289
-8 c9 -17 11 -30 5 -30 -5 0 -10 7 -10 16 0 14 -3 14 -17 3 -15 -11 -16 -11
-5 1 17 20 15 30 -5 24 -15 -5 -16 -4 -3 5 20 14 17 15 35 -19z m36 -7 c13
-16 12 -17 -3 -4 -17 13 -22 21 -14 21 2 0 10 -8 17 -17z m136 -20 c-3 -10 -5
-4 -5 12 0 17 2 24 5 18 2 -7 2 -21 0 -30z m87 -32 c-7 -8 -34 9 -34 21 0 9 3
9 11 -2 8 -11 9 -6 5 20 l-6 35 14 -35 c7 -19 12 -37 10 -39z m-269 20 c3 -5
2 -12 -3 -15 -5 -3 -9 1 -9 9 0 17 3 19 12 6z m165 -16 c4 3 6 -4 3 -16 -5
-20 -6 -20 -18 3 -6 13 -9 28 -6 33 3 6 7 2 9 -8 2 -9 7 -15 12 -12z m301 8
c13 -16 12 -17 -3 -4 -10 7 -18 15 -18 17 0 8 8 3 21 -13z m-244 -15 c-3 -8
-6 -5 -6 6 -1 11 2 17 5 13 3 -3 4 -12 1 -19z m-107 -2 c0 -2 -7 -6 -15 -10
-8 -3 -15 -1 -15 4 0 6 7 10 15 10 8 0 15 -2 15 -4z m-110 -70 c-7 -7 -10 4
-9 29 1 40 1 40 10 10 5 -18 5 -33 -1 -39z m201 45 c7 11 9 11 9 -3 0 -9 -4
-19 -9 -22 -9 -6 -22 17 -20 37 1 7 4 3 6 -7 4 -15 7 -16 14 -5z m59 3 c0 -8
-5 -12 -10 -9 -6 4 -8 11 -5 16 9 14 15 11 15 -7z m-233 -16 c-3 -8 -6 -5 -6
6 -1 11 2 17 5 13 3 -3 4 -12 1 -19z m113 12 c0 -5 -2 -10 -4 -10 -3 0 -8 5
-11 10 -3 6 -1 10 4 10 6 0 11 -4 11 -10z m111 -40 c12 0 12 -27 -1 -35 -6 -3
-7 1 -4 9 3 9 1 16 -5 16 -6 0 -11 -6 -11 -12 0 -9 -4 -8 -10 2 -13 20 -12 39
1 20 8 -11 9 -6 5 20 -6 33 -5 34 5 8 6 -16 15 -28 20 -28z m-378 10 c3 -11 1
-18 -3 -15 -5 3 -10 0 -12 -7 -3 -7 -7 -5 -11 6 -4 10 -3 15 3 11 6 -3 10 1
10 9 0 22 7 20 13 -4z m595 -14 c2 -24 -21 -42 -39 -30 -13 8 -11 -10 4 -26
10 -12 9 -12 -5 -2 -11 9 -18 10 -23 2 -3 -6 -11 -8 -16 -4 -5 3 -7 10 -3 15
3 5 10 7 15 4 13 -8 11 9 -2 22 -8 8 -1 10 26 7 29 -2 35 0 26 10 -6 7 -8 16
-4 19 12 13 19 7 21 -17z m-181 -1 c0 -8 -4 -12 -9 -9 -5 3 -6 10 -3 15 9 13
12 11 12 -6z m63 0 c0 -8 -4 -15 -10 -15 -5 0 -10 7 -10 15 0 8 5 15 10 15 6
0 10 -7 10 -15z m-25 -25 c3 -5 -1 -10 -9 -10 -9 0 -16 5 -16 10 0 6 4 10 9
10 6 0 13 -4 16 -10z m-42 -25 c-7 -21 -12 -19 -10 4 0 11 5 18 9 15 4 -3 5
-11 1 -19z"/>
<path d="M8020 190 c0 -11 7 -20 16 -20 9 0 12 -5 8 -12 -5 -9 -2 -8 10 1 13
11 14 16 4 22 -6 4 -16 5 -22 2 -5 -4 -7 1 -3 10 3 10 2 17 -3 17 -6 0 -10 -9
-10 -20z"/>
<path d="M8110 121 c0 -5 5 -13 10 -16 6 -3 10 -2 10 4 0 5 -4 13 -10 16 -5 3
-10 2 -10 -4z"/>
<path d="M5031 544 c0 -11 3 -14 6 -6 3 7 2 16 -1 19 -3 4 -6 -2 -5 -13z"/>
<path d="M5221 544 c0 -11 3 -14 6 -6 3 7 2 16 -1 19 -3 4 -6 -2 -5 -13z"/>
<path d="M4922 530 c0 -14 2 -19 5 -12 2 6 2 18 0 25 -3 6 -5 1 -5 -13z"/>
<path d="M4796 524 c-4 -10 -2 -12 6 -8 8 5 9 -3 5 -27 -3 -19 -3 -28 0 -21 2
6 9 10 13 7 5 -3 12 0 16 6 5 8 3 9 -6 4 -10 -6 -11 -2 -7 17 8 29 -17 48 -27
22z"/>
<path d="M5068 508 c3 -21 1 -29 -7 -24 -7 5 -9 1 -4 -9 5 -13 7 -14 14 -3 11
17 11 55 1 62 -5 3 -6 -9 -4 -26z"/>
<path d="M5272 520 c0 -14 2 -19 5 -12 2 6 2 18 0 25 -3 6 -5 1 -5 -13z"/>
<path d="M5312 520 c0 -14 2 -19 5 -12 2 6 2 18 0 25 -3 6 -5 1 -5 -13z"/>
<path d="M5342 520 c0 -14 2 -19 5 -12 2 6 2 18 0 25 -3 6 -5 1 -5 -13z"/>
<path d="M4491 490 c0 -33 1 -34 10 -11 6 16 6 28 -1 35 -7 7 -10 -1 -9 -24z"/>
<path d="M4522 490 c0 -19 2 -27 5 -17 2 9 2 25 0 35 -3 9 -5 1 -5 -18z"/>
<path d="M4566 504 c-3 -9 -3 -21 1 -26 3 -6 7 -33 8 -60 2 -27 6 -52 10 -56
4 -4 5 14 2 40 -3 31 0 53 10 67 8 12 10 21 4 21 -6 0 -11 7 -11 15 0 20 -16
19 -24 -1z"/>
<path d="M4881 504 c0 -11 3 -14 6 -6 3 7 2 16 -1 19 -3 4 -6 -2 -5 -13z"/>
<path d="M5022 500 c0 -14 2 -19 5 -12 2 6 2 18 0 25 -3 6 -5 1 -5 -13z"/>
<path d="M5540 506 c0 -8 4 -17 9 -20 5 -4 7 3 4 14 -6 23 -13 26 -13 6z"/>
<path d="M4620 500 c0 -5 5 -10 11 -10 5 0 7 5 4 10 -3 6 -8 10 -11 10 -2 0
-4 -4 -4 -10z"/>
<path d="M5142 490 c0 -14 2 -19 5 -12 2 6 2 18 0 25 -3 6 -5 1 -5 -13z"/>
<path d="M3555 491 c-75 -4 -139 -11 -152 -19 -12 -6 -29 -9 -37 -6 -9 4 -16
1 -16 -6 0 -9 -6 -8 -19 4 -15 14 -20 14 -25 4 -4 -10 -7 -10 -12 -1 -6 13
-186 9 -281 -6 -29 -4 -56 -4 -60 0 -4 4 -42 2 -83 -5 -41 -8 -78 -12 -82 -9
-5 2 -8 -2 -8 -9 0 -10 -2 -10 -9 1 -7 11 -11 10 -20 -5 -6 -11 -11 -13 -11
-6 0 24 -29 11 -33 -15 l-4 -28 -2 30 c-1 22 -4 26 -10 16 -8 -12 -15 -13 -35
-3 -20 9 -28 8 -41 -4 -8 -9 -15 -11 -15 -5 0 6 -7 11 -15 11 -8 0 -15 -4 -15
-10 0 -5 -9 -10 -20 -10 -11 0 -20 5 -20 10 0 6 -7 10 -16 10 -9 0 -12 -5 -8
-12 6 -10 5 -10 -7 -1 -12 10 -18 10 -27 1 -8 -8 -12 -9 -12 -1 0 12 -65 11
-77 0 -3 -4 -12 -2 -20 5 -11 9 -12 7 -7 -8 5 -18 5 -18 -9 -1 -17 21 -72 22
-144 3 -38 -10 -53 -11 -57 -2 -3 7 -8 6 -15 -4 -6 -8 -11 -10 -11 -5 0 11
-366 11 -535 0 -49 -4 -120 -6 -158 -5 -37 1 -73 -2 -80 -7 -17 -11 -41 -10
-49 2 -5 6 -8 6 -8 -1 0 -7 -21 -9 -59 -7 -50 3 -60 1 -64 -14 -3 -13 -5 -11
-6 7 -1 15 -4 20 -9 13 -10 -15 -130 -23 -136 -9 -3 7 -8 6 -15 -4 -6 -8 -11
-10 -12 -5 0 6 -4 1 -9 -10 -8 -19 -9 -19 -9 3 -1 26 -31 31 -31 5 0 -14 -2
-15 -9 -4 -7 11 -9 11 -14 0 -4 -11 -6 -11 -6 -1 -1 7 -5 10 -11 7 -5 -3 -10
-1 -10 5 0 6 -4 9 -9 6 -12 -8 -210 -11 -217 -3 -3 3 -15 0 -26 -6 -16 -9 -22
-9 -25 0 -3 8 -12 9 -29 3 -26 -10 -74 -10 -74 0 0 3 -26 3 -57 0 -32 -3 -74
-3 -93 0 -19 3 -75 2 -125 -2 -49 -4 -113 -9 -142 -10 l-51 -3 -7 -44 c-6 -37
-3 -47 11 -58 10 -7 15 -15 12 -18 -3 -3 -14 2 -24 12 -17 17 -18 17 -11 0 4
-10 7 -21 7 -23 0 -3 5 -2 11 2 8 4 9 -1 4 -17 -14 -49 -15 -64 -2 -36 7 15
17 24 21 20 5 -5 5 3 1 17 -6 20 -5 23 6 12 16 -15 39 -16 39 -2 0 6 -8 10
-17 8 -14 -2 -19 5 -21 31 -6 57 16 29 62 -79 3 -8 4 3 1 25 -2 22 -2 34 1 28
9 -20 24 -15 18 4 -2 10 1 8 7 -4 6 -12 9 -29 6 -38 -4 -8 -7 -19 -7 -23 -1
-4 -10 -10 -21 -14 -23 -9 -17 -28 9 -28 15 0 15 -2 2 -10 -23 -15 -40 -12
-34 5 4 9 0 15 -8 15 -8 0 -21 -18 -28 -40 -7 -22 -17 -40 -22 -40 -4 0 -8
-10 -8 -22 0 -19 2 -20 11 -8 8 12 9 9 5 -11 -4 -18 -1 -26 9 -26 17 0 18 7 6
39 -12 31 11 63 47 64 15 0 35 4 45 8 12 6 17 4 17 -9 0 -9 -6 -15 -12 -12
-29 10 -48 -13 -47 -56 1 -23 3 -33 6 -22 2 11 6 30 9 42 8 38 24 26 24 -17 0
-22 5 -40 10 -40 6 0 9 16 6 38 -2 20 -1 27 1 15 2 -13 9 -23 15 -23 5 0 8 -7
4 -15 -3 -8 -1 -15 4 -15 6 0 10 15 11 33 1 30 1 30 9 7 6 -22 8 -23 15 -8 4
10 4 26 1 35 -6 17 -5 17 8 0 10 -14 15 -15 19 -5 3 7 3 -4 0 -24 -5 -31 -2
-38 10 -38 13 0 15 7 12 33 l-5 32 10 -32 c7 -22 15 -30 25 -27 8 4 12 10 9
15 -3 5 -10 7 -16 3 -6 -4 -8 3 -6 17 1 12 10 25 18 27 13 5 13 3 1 -11 -12
-15 -11 -17 3 -17 9 0 16 -8 16 -20 0 -13 7 -20 19 -20 20 0 36 39 32 75 -2
11 1 16 6 12 4 -5 8 -25 8 -44 0 -20 6 -38 13 -40 7 -3 12 5 12 22 0 15 4 24
10 20 6 -3 10 1 10 9 0 8 5 18 11 21 5 4 3 -10 -5 -30 -9 -21 -16 -38 -16 -39
0 -1 12 -3 26 -4 23 -2 25 1 20 21 -4 17 -1 24 9 24 9 0 15 -10 15 -24 0 -24
25 -32 33 -10 4 8 6 9 6 0 1 -9 63 -12 239 -13 226 -1 238 0 238 18 0 10 -7
25 -14 32 -12 11 -13 10 -8 -8 4 -11 2 -23 -4 -27 -5 -3 -10 2 -11 12 0 13 -2
14 -6 4 -4 -10 -9 -8 -20 10 -8 13 -12 16 -9 7 6 -21 -2 -22 -27 -3 -13 9 -17
21 -12 37 6 22 5 22 -6 3 -7 -11 -13 -21 -15 -23 -1 -2 -11 2 -22 9 -15 10
-18 18 -12 38 5 18 3 31 -6 39 -12 11 -14 9 -15 -10 0 -13 -5 -32 -10 -43 -7
-15 -8 -9 -3 20 3 22 13 46 21 52 9 7 14 16 10 19 -4 4 -16 -4 -28 -17 -21
-24 -21 -24 -15 -1 7 22 -9 32 -16 10 -3 -7 -7 -6 -11 5 -3 9 -2 17 4 17 6 0
7 5 4 11 -4 5 0 18 9 28 10 11 14 25 10 36 -5 13 -4 16 4 11 17 -10 15 -32 -4
-50 -14 -15 -14 -18 1 -33 14 -14 18 -14 26 -2 8 12 10 12 19 -1 6 -8 8 -23 6
-33 -2 -9 0 -15 5 -11 5 3 9 16 9 30 0 13 4 24 9 24 5 0 7 -20 5 -45 -1 -26 1
-43 7 -40 5 4 9 16 9 27 0 28 22 88 32 88 4 0 8 -4 8 -10 0 -5 17 -9 38 -9 23
1 28 3 14 6 -14 3 -22 12 -22 24 0 10 -5 19 -11 19 -5 0 -7 5 -3 12 5 8 11 4
18 -12 6 -14 21 -26 34 -28 22 -3 23 -1 17 30 -4 23 -3 29 3 19 8 -12 11 -11
15 5 2 10 2 -3 0 -31 -3 -37 -1 -46 6 -35 6 8 11 25 11 37 0 12 5 25 10 28 6
4 9 -6 8 -27 -2 -27 0 -32 15 -30 22 4 22 -11 -2 -32 -24 -22 -33 -53 -15 -53
7 0 13 3 12 6 0 3 0 14 1 24 1 24 36 18 36 -5 0 -10 6 -23 13 -30 16 -16 15
-33 -3 -48 -8 -7 -15 -21 -15 -31 0 -11 -4 -19 -9 -19 -5 0 -11 -11 -13 -25
-5 -25 -5 -25 73 -25 l79 0 19 38 c11 20 20 33 21 28 0 -6 6 -1 14 9 12 17 16
18 32 5 18 -14 18 -14 5 3 -8 10 -20 16 -28 13 -10 -4 -11 -1 -3 14 5 10 15
22 22 26 7 4 8 3 4 -4 -4 -7 -2 -12 3 -12 6 0 11 8 11 19 0 10 7 24 15 31 12
10 13 6 10 -27 -4 -30 -3 -32 4 -13 4 14 13 24 20 22 8 -2 7 5 -3 20 -9 12
-16 27 -16 33 0 5 5 2 11 -9 9 -15 13 -16 21 -5 8 11 9 10 4 -4 -3 -9 -1 -17
4 -17 5 0 11 8 13 18 3 10 5 6 6 -11 0 -16 -3 -26 -8 -23 -16 10 -32 -53 -19
-77 9 -18 12 -19 17 -6 3 9 14 15 24 13 10 -1 17 4 17 13 0 12 -3 13 -13 4
-11 -8 -14 -5 -14 18 0 19 5 27 13 24 7 -2 14 4 17 14 3 10 5 -2 6 -27 2 -38
4 -41 11 -22 5 12 14 22 19 22 13 0 22 -28 10 -35 -5 -4 -6 -11 -3 -17 4 -6
10 -5 16 3 5 9 7 0 3 -26 -5 -35 -4 -37 5 -15 9 20 13 22 20 10 5 -8 10 -19
10 -25 0 -5 -5 -3 -10 5 -8 13 -10 13 -10 -1 0 -31 14 -28 38 7 27 40 27 40
36 0 6 -25 5 -28 -11 -22 -14 6 -15 4 -6 -5 13 -13 33 -4 33 16 0 15 45 11 66
-6 6 -5 19 -7 28 -3 9 3 16 1 16 -5 0 -7 157 -10 520 -11 520 0 520 0 520 20
0 14 -4 19 -12 14 -7 -4 -8 -3 -4 5 4 6 12 9 17 6 5 -4 9 0 9 7 0 9 3 9 8 2 8
-12 42 -15 42 -3 0 6 22 17 50 24 28 8 60 27 60 36 0 7 12 10 29 7 17 -2 28
-1 25 4 -3 4 4 8 15 8 12 0 21 8 24 23 3 18 5 16 6 -8 l3 -30 13 30 c9 19 14
24 15 13 0 -27 29 -22 36 6 5 23 7 23 25 8 11 -10 23 -15 27 -12 4 3 10 -8 14
-25 l7 -30 -2 30 c-1 18 -7 29 -14 27 -15 -2 -18 24 -4 32 5 4 12 0 14 -6 3
-7 6 -3 6 10 1 13 5 20 11 17 6 -3 10 2 11 12 0 10 3 13 5 6 3 -7 12 -9 20 -6
8 3 14 -1 14 -8 0 -7 3 -9 6 -6 4 4 1 14 -6 22 -11 13 -11 16 1 13 8 -2 20
-12 27 -23 13 -20 13 -20 9 1 -2 11 1 21 7 21 25 1 41 9 48 23 4 10 7 7 8 -10
0 -24 1 -24 16 8 l17 32 20 -40 c22 -45 35 -47 19 -2 -8 24 -6 32 16 53 l25
24 -8 -24 c-6 -21 -5 -22 8 -10 8 8 12 19 9 24 -3 6 3 3 13 -5 17 -14 18 -13
12 3 -3 9 -2 17 3 17 6 0 10 -8 11 -17 0 -12 5 -8 14 11 l12 30 9 -25 c4 -13
7 -28 5 -33 -1 -5 1 -16 5 -25 4 -9 8 -19 8 -23 1 -3 11 -18 24 -32 12 -15 22
-33 22 -41 0 -9 11 -37 24 -63 14 -26 28 -64 31 -85 l7 -37 69 0 c38 0 69 1
69 3 -1 15 -43 133 -49 137 -11 7 -42 102 -30 95 5 -4 9 -2 9 4 0 5 -5 11 -11
13 -7 2 -12 18 -13 35 0 17 -5 31 -11 30 -5 -1 -11 14 -13 33 -2 19 -8 37 -13
41 -5 3 -3 14 5 25 8 10 18 15 22 11 5 -4 2 -12 -6 -17 -10 -7 -11 -10 -2 -10
7 0 12 -15 13 -37 1 -21 3 -30 6 -20 2 9 9 17 13 17 6 0 6 10 0 25 -8 20 -6
23 7 18 12 -5 14 -1 9 15 -6 17 -4 21 8 16 10 -4 16 -1 16 7 0 7 3 9 6 6 4 -4
2 -12 -4 -19 -5 -7 -13 -35 -16 -63 -4 -35 -3 -44 3 -30 5 11 10 31 10 45 1
19 3 22 10 10 6 -8 8 -17 5 -21 -2 -4 8 -11 24 -17 l27 -9 -2 48 c-1 27 2 49
7 49 5 0 7 -7 4 -15 -4 -8 -1 -15 5 -15 7 0 11 15 10 39 -2 31 -6 37 -20 34
-10 -3 -20 -17 -22 -32 -4 -23 -4 -23 -6 6 -1 26 -5 31 -21 28 -11 -2 -20 2
-21 8 -1 7 -5 1 -9 -13 -5 -17 -8 -19 -9 -7 -1 18 -21 25 -21 6 0 -6 -5 -7
-12 -2 -7 4 -17 8 -23 9 -5 1 -17 4 -25 6 -8 2 -73 2 -145 -1z m291 -118 c-11
-11 -19 6 -11 24 8 17 8 17 12 0 3 -10 2 -21 -1 -24z m-2539 -39 c-3 -3 -12
-4 -19 -1 -8 3 -5 6 6 6 11 1 17 -2 13 -5z m-1194 -31 c-3 -7 -6 -13 -8 -13
-2 0 -5 6 -8 13 -3 8 1 14 8 14 7 0 11 -6 8 -14z m844 -5 c-3 -8 -6 -5 -6 6
-1 11 2 17 5 13 3 -3 4 -12 1 -19z m246 7 c-3 -9 -8 -14 -10 -11 -3 3 -2 9 2
15 9 16 15 13 8 -4z m1254 -17 c-3 -7 -5 -2 -5 12 0 14 2 19 5 13 2 -7 2 -19
0 -25z m33 -24 c-9 -10 -9 -14 -1 -14 6 0 11 -5 11 -11 0 -5 -4 -8 -9 -5 -5 3
-9 -4 -9 -17 0 -12 -2 -31 -4 -42 -3 -11 -3 -14 -1 -7 4 10 8 10 19 1 8 -6 14
-17 14 -23 0 -6 -5 -4 -10 4 -6 10 -10 11 -10 3 0 -7 -8 -13 -19 -13 -21 0
-37 40 -19 51 11 7 19 49 19 99 0 23 1 23 9 5 8 -19 9 -18 11 5 2 24 2 24 6 2
3 -13 -1 -30 -7 -38z m47 24 c-3 -7 -5 -2 -5 12 0 14 2 19 5 13 2 -7 2 -19 0
-25z m-2480 0 c-3 -8 -6 -5 -6 6 -1 11 2 17 5 13 3 -3 4 -12 1 -19z m109 -15
c-11 -11 -19 6 -11 24 8 17 8 17 12 0 3 -10 2 -21 -1 -24z m956 -15 c-8 -8 -9
-4 -5 13 4 13 8 18 11 10 2 -7 -1 -18 -6 -23z m-923 -37 c-7 -28 -17 -51 -22
-51 -4 0 -5 10 -1 23 4 12 7 28 7 35 0 6 4 12 9 12 4 0 8 10 8 22 0 12 3 19 6
15 3 -3 0 -29 -7 -56z m521 52 c0 -5 -5 -15 -10 -23 -8 -12 -10 -11 -10 8 0
12 5 22 10 22 6 0 10 -3 10 -7z m467 -33 c-1 -22 -5 -40 -9 -40 -10 0 -10 8
-2 49 9 43 14 39 11 -9z m68 31 c3 -5 1 -12 -5 -16 -5 -3 -10 1 -10 9 0 18 6
21 15 7z m-388 -21 c-1 -11 -5 -20 -9 -20 -10 0 -10 4 -2 24 8 22 13 20 11 -4z
m43 13 c0 -5 -8 -17 -17 -28 -14 -18 -15 -18 -9 -2 3 10 6 23 6 28 0 5 5 9 10
9 6 0 10 -3 10 -7z m30 0 c0 -5 -8 -17 -17 -28 -14 -18 -15 -18 -9 -2 3 10 6
23 6 28 0 5 5 9 10 9 6 0 10 -3 10 -7z m1474 -33 c-4 -27 -3 -40 5 -40 6 0 11
10 11 23 0 12 5 29 10 37 12 16 6 -21 -10 -73 -7 -19 -6 -26 2 -21 6 4 9 1 7
-5 -7 -20 -24 -13 -28 11 -1 13 -8 26 -13 29 -7 4 -6 19 3 43 17 47 21 46 13
-4z m-1726 0 c4 0 7 -10 7 -23 0 -13 -5 -24 -10 -24 -6 0 -11 19 -12 41 0 23
2 33 4 24 3 -10 8 -18 11 -18z m83 -50 c5 0 9 -5 9 -10 0 -7 -6 -7 -20 0 -12
6 -20 7 -20 1 0 -5 6 -12 13 -14 6 -3 2 -6 -11 -6 -19 -1 -22 3 -17 20 5 15 4
19 -4 15 -6 -4 -11 -2 -11 3 0 6 7 11 15 11 8 0 15 8 15 18 0 36 15 34 18 -2
2 -20 7 -36 13 -36z m2029 54 c0 -8 -4 -12 -10 -9 -5 3 -10 -2 -11 -12 0 -10
-3 -13 -6 -6 -3 9 -10 10 -24 3 -16 -9 -19 -7 -19 12 0 17 3 19 9 9 6 -9 11
-10 15 -2 4 6 11 9 16 6 5 -3 11 -1 15 5 9 15 15 12 15 -6z m-266 -46 c4 -24
2 -39 -5 -44 -8 -5 -10 -2 -6 8 3 9 2 32 -3 53 -5 21 -5 34 0 29 4 -5 11 -26
14 -46z m-1374 32 c0 -5 -4 -10 -10 -10 -5 0 -10 5 -10 10 0 6 5 10 10 10 6 0
10 -4 10 -10z m-870 -16 c0 -8 -5 -12 -10 -9 -6 4 -8 11 -5 16 9 14 15 11 15
-7z m2393 -4 c-3 -12 -8 -19 -11 -16 -5 6 5 36 12 36 2 0 2 -9 -1 -20z m-1476
-15 c-4 -8 -11 -15 -17 -15 -6 0 -6 7 2 20 14 22 24 19 15 -5z m1300 3 c-3 -8
-6 -5 -6 6 -1 11 2 17 5 13 3 -3 4 -12 1 -19z m-1340 -20 c-3 -8 -6 -5 -6 6
-1 11 2 17 5 13 3 -3 4 -12 1 -19z m1071 5 c-1 -10 1 -24 5 -30 5 -7 4 -13 -2
-13 -15 0 -21 14 -14 38 6 26 15 29 11 5z m-2031 -15 c-3 -8 -6 -5 -6 6 -1 11
2 17 5 13 3 -3 4 -12 1 -19z m73 -35 c-11 -17 -11 -17 -6 0 3 10 6 24 7 30 0
9 2 9 5 0 3 -7 0 -20 -6 -30z m510 6 c0 -6 -4 -7 -10 -4 -5 3 -10 11 -10 16 0
6 5 7 10 4 6 -3 10 -11 10 -16z m1417 -16 c-3 -10 -5 -4 -5 12 0 17 2 24 5 18
2 -7 2 -21 0 -30z m-1950 5 c-3 -8 -6 -5 -6 6 -1 11 2 17 5 13 3 -3 4 -12 1
-19z m1197 -11 c-9 -24 -23 -11 -17 14 3 12 9 17 15 11 5 -5 6 -16 2 -25z
m-1219 -6 c-3 -6 -11 -11 -17 -11 -6 0 -6 6 2 15 14 17 26 13 15 -4z m1350
-21 c3 -5 1 -10 -4 -10 -6 0 -11 5 -11 10 0 6 2 10 4 10 3 0 8 -4 11 -10z
m-1199 -45 c-8 -30 -22 -33 -22 -5 0 11 4 20 8 20 4 0 8 8 9 18 0 11 2 12 6 4
3 -7 2 -24 -1 -37z"/>
<path d="M4070 492 c0 -17 21 -25 31 -13 5 6 6 9 3 6 -4 -3 -13 0 -21 6 -9 8
-13 8 -13 1z"/>
<path d="M4673 468 c0 -30 1 -30 10 -10 7 15 7 26 0 33 -6 6 -10 -1 -10 -23z"/>
<path d="M4725 490 c3 -5 8 -10 11 -10 2 0 4 5 4 10 0 6 -5 10 -11 10 -5 0 -7
-4 -4 -10z"/>
<path d="M4767 487 c-3 -8 -1 -20 5 -28 8 -11 9 -11 5 3 -3 9 -1 18 6 21 8 2
8 5 0 10 -6 4 -13 1 -16 -6z"/>
<path d="M4912 480 c0 -14 2 -19 5 -12 2 6 2 18 0 25 -3 6 -5 1 -5 -13z"/>
<path d="M3966 481 c-12 -19 -20 -134 -8 -127 6 3 12 -3 15 -16 3 -17 5 -14 6
10 0 20 -3 31 -9 27 -11 -7 -11 9 0 45 8 24 8 25 9 2 1 -13 10 -32 21 -44 11
-12 20 -29 20 -37 0 -14 -1 -14 -10 -1 -12 18 -12 3 0 -25 7 -18 8 -17 15 10
5 17 16 41 27 54 10 13 18 33 18 43 0 14 5 18 15 14 10 -3 15 1 15 11 0 9 -3
14 -6 10 -3 -3 -15 3 -27 14 -11 10 -26 19 -31 18 -6 0 -5 -3 2 -6 13 -5 17
-93 4 -93 -4 0 -6 16 -4 35 3 23 -1 40 -12 50 -15 15 -16 14 -16 -9 0 -14 4
-26 10 -26 5 0 9 -16 8 -35 -1 -33 -17 -51 -19 -22 -1 14 -3 20 -14 65 -8 35
-20 48 -29 33z"/>
<path d="M3933 445 c0 -22 2 -30 4 -17 2 12 2 30 0 40 -3 9 -5 -1 -4 -23z"/>
<path d="M4550 461 c0 -25 6 -27 13 -6 4 8 2 17 -3 20 -6 4 -10 -3 -10 -14z"/>
<path d="M4850 470 c0 -8 5 -22 10 -30 9 -13 10 -13 10 0 0 8 -5 22 -10 30 -9
13 -10 13 -10 0z"/>
<path d="M4892 455 c0 -16 2 -22 5 -12 2 9 2 23 0 30 -3 6 -5 -1 -5 -18z"/>
<path d="M5231 464 c0 -11 3 -14 6 -6 3 7 2 16 -1 19 -3 4 -6 -2 -5 -13z"/>
<path d="M4604 456 c-3 -8 -4 -25 -2 -38 3 -17 5 -13 9 15 5 38 2 47 -7 23z"/>
<path d="M4692 430 c0 -14 2 -19 5 -12 2 6 2 18 0 25 -3 6 -5 1 -5 -13z"/>
<path d="M4483 405 c0 -22 2 -30 4 -17 2 12 2 30 0 40 -3 9 -5 -1 -4 -23z"/>
<path d="M4531 424 c0 -11 3 -14 6 -6 3 7 2 16 -1 19 -3 4 -6 -2 -5 -13z"/>
<path d="M3890 400 c-9 -6 -10 -10 -3 -10 6 0 15 5 18 10 8 12 4 12 -15 0z"/>
<path d="M4826 397 c3 -10 9 -15 12 -12 3 3 0 11 -7 18 -10 9 -11 8 -5 -6z"/>
<path d="M4786 374 c-4 -14 -5 -28 -3 -31 3 -2 8 8 11 23 4 14 5 28 3 31 -3 2
-8 -8 -11 -23z"/>
<path d="M4088 383 c6 -2 18 -2 25 0 6 3 1 5 -13 5 -14 0 -19 -2 -12 -5z"/>
<path d="M4601 380 c0 -8 4 -22 9 -30 12 -18 12 -2 0 25 -6 13 -9 15 -9 5z"/>
<path d="M4495 359 c-4 -12 -3 -25 2 -29 4 -5 8 4 9 21 1 34 -2 37 -11 8z"/>
<path d="M15 356 c-5 -6 -11 -36 -11 -66 l-1 -55 13 50 c16 56 15 90 -1 71z"/>
<path d="M4056 358 c-6 -18 -4 -49 2 -43 6 6 10 55 5 55 -2 0 -5 -6 -7 -12z"/>
<path d="M4105 318 c7 -70 15 -73 15 -5 0 31 -4 57 -10 57 -5 0 -7 -22 -5 -52z"/>
<path d="M4132 345 c0 -16 2 -22 5 -12 2 9 2 23 0 30 -3 6 -5 -1 -5 -18z"/>
<path d="M4540 343 c0 -30 16 -38 23 -11 4 12 4 24 2 27 -3 2 -5 -2 -5 -10 0
-11 -2 -11 -10 1 -8 12 -10 11 -10 -7z"/>
<path d="M4521 334 c0 -11 3 -14 6 -6 3 7 2 16 -1 19 -3 4 -6 -2 -5 -13z"/>
<path d="M4588 338 c-6 -17 3 -68 12 -68 5 0 5 12 1 28 -4 15 -6 33 -4 40 3 6
2 12 0 12 -3 0 -7 -5 -9 -12z"/>
<path d="M4836 333 c-4 -9 -2 -21 4 -27 7 -7 10 -2 10 17 0 31 -5 34 -14 10z"/>
<path d="M3802 303 c2 -20 9 -39 17 -41 11 -4 12 2 6 24 -4 16 -8 35 -8 42 0
6 -4 12 -9 12 -5 0 -8 -17 -6 -37z"/>
<path d="M3830 330 c0 -5 5 -10 11 -10 5 0 7 5 4 10 -3 6 -8 10 -11 10 -2 0
-4 -4 -4 -10z"/>
<path d="M4184 316 c-3 -8 -4 -25 -2 -38 3 -17 5 -13 9 15 5 38 2 47 -7 23z"/>
<path d="M4681 314 c0 -11 3 -14 6 -6 3 7 2 16 -1 19 -3 4 -6 -2 -5 -13z"/>
<path d="M3986 308 c-9 -30 -15 -92 -7 -78 10 18 22 90 15 90 -3 0 -6 -6 -8
-12z"/>
<path d="M5101 304 c0 -11 3 -14 6 -6 3 7 2 16 -1 19 -3 4 -6 -2 -5 -13z"/>
<path d="M3920 285 c0 -14 5 -25 10 -25 6 0 10 11 10 25 0 14 -4 25 -10 25 -5
0 -10 -11 -10 -25z"/>
<path d="M3530 273 c0 -46 16 -56 17 -13 1 22 -2 40 -8 40 -5 0 -9 -12 -9 -27z"/>
<path d="M3493 283 c-7 -3 -13 -9 -13 -14 0 -6 5 -7 12 -3 8 5 9 2 5 -9 -3
-10 -2 -17 2 -17 12 0 21 25 13 37 -4 5 -13 8 -19 6z"/>
<path d="M4221 274 c0 -11 3 -14 6 -6 3 7 2 16 -1 19 -3 4 -6 -2 -5 -13z"/>
<path d="M3571 264 c0 -11 3 -14 6 -6 3 7 2 16 -1 19 -3 4 -6 -2 -5 -13z"/>
<path d="M4022 250 c0 -19 2 -27 5 -17 2 9 2 25 0 35 -3 9 -5 1 -5 -18z"/>
<path d="M4141 264 c0 -11 3 -14 6 -6 3 7 2 16 -1 19 -3 4 -6 -2 -5 -13z"/>
<path d="M3400 261 c0 -6 4 -13 10 -16 6 -3 7 1 4 9 -7 18 -14 21 -14 7z"/>
<path d="M1081 224 c0 -11 3 -14 6 -6 3 7 2 16 -1 19 -3 4 -6 -2 -5 -13z"/>
<path d="M3561 224 c0 -11 3 -14 6 -6 3 7 2 16 -1 19 -3 4 -6 -2 -5 -13z"/>
<path d="M4121 224 c0 -11 3 -14 6 -6 3 7 2 16 -1 19 -3 4 -6 -2 -5 -13z"/>
<path d="M4181 224 c0 -11 3 -14 6 -6 3 7 2 16 -1 19 -3 4 -6 -2 -5 -13z"/>
<path d="M3492 210 c0 -14 2 -19 5 -12 2 6 2 18 0 25 -3 6 -5 1 -5 -13z"/>
<path d="M3520 200 c0 -19 3 -21 12 -12 9 9 9 15 0 24 -9 9 -12 7 -12 -12z"/>
<path d="M3597 213 c-11 -11 -8 -20 7 -20 8 0 12 6 9 14 -6 15 -7 15 -16 6z"/>
<path d="M87 203 c-4 -3 -7 -13 -7 -22 1 -13 3 -13 11 2 11 19 8 33 -4 20z"/>
<path d="M946 185 c-9 -14 -12 -25 -6 -25 5 0 10 5 10 11 0 5 6 7 13 3 6 -4 9
-4 5 1 -4 4 -3 14 3 22 7 8 8 13 1 13 -5 0 -17 -11 -26 -25z"/>
<path d="M3257 191 c-4 -17 -3 -21 5 -13 5 5 8 16 6 23 -3 8 -7 3 -11 -10z"/>
<path d="M3341 194 c0 -11 3 -14 6 -6 3 7 2 16 -1 19 -3 4 -6 -2 -5 -13z"/>
<path d="M4011 194 c0 -11 3 -14 6 -6 3 7 2 16 -1 19 -3 4 -6 -2 -5 -13z"/>
<path d="M106 175 c-3 -8 -1 -15 4 -15 6 0 10 7 10 15 0 8 -2 15 -4 15 -2 0
-6 -7 -10 -15z"/>
<path d="M1120 186 c0 -19 24 -76 32 -76 12 0 10 6 -12 47 -11 21 -20 34 -20
29z"/>
<path d="M1000 145 c0 -5 4 -16 9 -23 6 -10 11 -9 22 4 11 14 11 16 0 10 -8
-5 -17 -3 -22 5 -5 8 -9 10 -9 4z"/>
<path d="M3162 130 c0 -14 2 -19 5 -12 2 6 2 18 0 25 -3 6 -5 1 -5 -13z"/>
<path d="M8238 133 c-3 -13 -2 -23 3 -23 14 0 11 -38 -3 -43 -10 -4 -10 -7 -1
-17 19 -20 27 13 16 63 -7 35 -10 38 -15 20z"/>
<path d="M34 108 c1 -28 4 -34 14 -26 7 7 9 15 3 22 -4 6 -11 18 -14 26 -2 8
-4 -1 -3 -22z"/>
<path d="M1110 128 c0 -7 3 -24 7 -37 6 -23 7 -23 13 -6 8 23 1 55 -11 55 -5
0 -9 -6 -9 -12z"/>
<path d="M991 94 c0 -11 3 -14 6 -6 3 7 2 16 -1 19 -3 4 -6 -2 -5 -13z"/>
<path d="M1380 92 c11 -22 31 -22 29 1 0 8 -2 8 -6 -1 -4 -10 -9 -9 -20 5 -13
17 -13 16 -3 -5z"/>
<path d="M8 65 c-5 -39 6 -34 16 8 3 15 2 27 -3 27 -5 0 -11 -16 -13 -35z"/>
<path d="M96 71 c-8 -13 5 -71 15 -71 12 0 11 27 -1 35 -5 3 -10 13 -10 21 0
8 5 12 10 9 6 -3 10 -1 10 4 0 13 -17 14 -24 2z"/>
<path d="M152 30 c0 -19 2 -27 5 -17 2 9 2 25 0 35 -3 9 -5 1 -5 -18z"/>
<path d="M1350 46 c0 -8 5 -18 12 -22 7 -5 8 -3 3 6 -4 7 -2 16 6 21 11 7 10
9 -3 9 -10 0 -18 -6 -18 -14z"/>
<path d="M1526 45 c-9 -26 -7 -32 5 -12 6 10 9 21 6 23 -2 3 -7 -2 -11 -11z"/>
<path d="M7782 24 c6 -13 15 -21 20 -18 5 3 5 11 -1 18 -6 7 -9 15 -6 18 3 2
-1 5 -9 5 -11 0 -12 -5 -4 -23z"/>
<path d="M22 20 c-7 -12 -8 -20 -2 -20 5 0 10 6 10 13 0 8 4 7 10 -3 5 -8 10
-11 10 -5 0 6 -4 15 -8 22 -6 9 -11 7 -20 -7z"/>
<path d="M1491 24 c0 -11 3 -14 6 -6 3 7 2 16 -1 19 -3 4 -6 -2 -5 -13z"/>
</g>
</svg>
